M48
; DRILL file {KiCad 8.0.2} date 2024-06-10T22:31:22-0500
; FORMAT={-:-/ absolute / inch / decimal}
; #@! TF.CreationDate,2024-06-10T22:31:22-05:00
; #@! TF.GenerationSoftware,Kicad,Pcbnew,8.0.2
; #@! TF.FileFunction,MixedPlating,1,2
FMAT,2
INCH
; #@! TA.AperFunction,Plated,PTH,ViaDrill
T1C0.0118
; #@! TA.AperFunction,Plated,PTH,ComponentDrill
T2C0.0118
; #@! TA.AperFunction,Plated,PTH,ViaDrill
T3C0.0157
; #@! TA.AperFunction,Plated,PTH,ComponentDrill
T4C0.0236
; #@! TA.AperFunction,Plated,PTH,ComponentDrill
T5C0.0276
; #@! TA.AperFunction,Plated,PTH,ComponentDrill
T6C0.0295
; #@! TA.AperFunction,Plated,PTH,ComponentDrill
T7C0.0315
; #@! TA.AperFunction,Plated,PTH,ComponentDrill
T8C0.0354
; #@! TA.AperFunction,Plated,PTH,ComponentDrill
T9C0.0394
; #@! TA.AperFunction,Plated,PTH,ComponentDrill
T10C0.0591
; #@! TA.AperFunction,NonPlated,NPTH,ComponentDrill
T11C0.1260
%
G90
G05
T1
X2.925Y-2.35
X2.925Y-2.45
X2.925Y-2.55
X2.925Y-2.75
X2.925Y-2.85
X2.925Y-2.95
X2.925Y-3.05
X2.925Y-3.15
X2.925Y-3.35
X2.925Y-3.45
X2.925Y-3.55
X2.925Y-3.65
X2.925Y-3.75
X2.925Y-4.0
X2.925Y-4.05
X2.925Y-4.15
X3.0Y-3.125
X3.025Y-2.275
X3.075Y-2.575
X3.075Y-5.075
X3.125Y-4.15
X3.125Y-4.925
X3.15Y-4.075
X3.15Y-4.725
X3.175Y-4.05
X3.175Y-4.525
X3.2Y-3.75
X3.2Y-4.375
X3.225Y-3.675
X3.225Y-4.575
X3.25Y-3.65
X3.25Y-4.775
X3.275Y-2.325
X3.3Y-1.925
X3.3Y-2.125
X3.3Y-2.875
X3.325Y-3.975
X3.35Y-3.775
X3.45Y-1.975
X3.45Y-2.475
X3.45Y-3.45
X3.45Y-3.775
X3.475Y-2.175
X3.475Y-2.525
X3.475Y-3.6
X3.475Y-3.75
X3.5Y-2.45
X3.5Y-3.475
X3.5Y-3.575
X3.5Y-3.925
X3.525Y-3.725
X3.675Y-2.575
X3.7Y-2.55
X4.075Y-2.175
X4.075Y-2.625
X4.1Y-1.975
X4.1Y-2.4
X4.125Y-2.825
X4.15Y-2.8
X4.15Y-3.725
X4.175Y-2.775
X4.175Y-3.75
X4.2Y-2.75
X4.225Y-2.85
X4.25Y-2.725
X4.275Y-2.675
X4.3Y-2.7
X4.325Y-3.725
X4.35Y-2.575
X4.35Y-3.025
X4.35Y-3.825
X4.375Y-2.55
X4.375Y-3.0
X4.475Y-3.675
X4.575Y-2.225
X4.625Y-3.225
X4.65Y-2.975
X4.7Y-2.425
X4.7Y-2.875
X4.75Y-2.6
X4.75Y-3.775
X4.75Y-3.95
X4.775Y-2.15
X4.8Y-2.2
X4.8Y-2.65
X4.8Y-3.475
X4.825Y-2.525
X4.85Y-2.55
X4.85Y-3.575
X4.9Y-3.375
X4.925Y-2.575
X4.925Y-3.225
X4.925Y-3.325
X4.975Y-3.2
X4.975Y-3.325
X5.0Y-2.825
X5.0Y-3.675
X5.025Y-2.625
X5.025Y-3.775
X5.05Y-3.075
X5.05Y-4.175
X5.2Y-3.975
X5.225Y-3.775
X5.225Y-4.0
X5.35Y-3.175
X5.375Y-2.7
X5.4Y-2.575
X5.4Y-4.25
X5.525Y-3.125
X5.65Y-2.25
X5.65Y-2.7
X5.65Y-4.25
X5.65Y-5.375
X5.7Y-2.05
X5.7Y-5.275
X5.7Y-5.475
X5.7Y-5.675
X5.725Y-1.85
X5.725Y-2.45
X5.8Y-3.975
X5.85Y-2.0
X5.875Y-2.4
X5.925Y-2.35
X5.95Y-2.875
X6.05Y-5.575
X6.075Y-5.925
X6.1Y-5.725
X6.25Y-5.775
X6.3Y-4.0
X6.35Y-5.125
X6.35Y-5.9
X6.4Y-5.425
X6.45Y-5.725
X6.5Y-5.225
X6.55Y-5.1
X6.6Y-5.075
X6.65Y-3.85
X6.7Y-3.825
X6.725Y-2.925
X6.725Y-3.15
X6.75Y-2.6
X6.8Y-2.575
X6.95Y-6.15
X6.975Y-2.625
X6.975Y-6.175
X7.0Y-3.875
X7.0Y-6.2
X7.025Y-5.125
X7.025Y-6.225
X7.0708Y-1.3458
X7.1Y-1.4
X7.125Y-1.325
X7.25Y-5.925
X7.2547Y-1.75
X7.3Y-1.7764
X7.35Y-1.8
X7.35Y-5.9
X7.4Y-3.025
X7.45Y-3.125
X7.55Y-5.825
X7.6Y-2.0
X7.65Y-2.45
X7.7Y-2.05
X7.7458Y-2.0958
X7.8Y-2.15
X7.85Y-2.4
X7.9Y-2.5
X7.95Y-2.525
X8.0Y-3.15
X8.05Y-3.275
X8.1Y-3.3
X8.125Y-5.85
X8.15Y-3.325
X8.2Y-3.35
X8.25Y-3.375
X8.275Y-5.875
X8.275Y-6.305
X8.3Y-3.4
X8.35Y-3.425
X8.375Y-6.025
X8.4Y-3.45
X8.45Y-4.625
X8.5Y-4.725
X8.55Y-4.775
X8.6Y-4.575
X8.65Y-4.375
X8.7Y-1.325
X8.7Y-2.575
X8.7Y-3.825
X8.7Y-5.075
X8.85Y-4.325
X8.9Y-1.35
X8.9Y-2.6
X8.9Y-3.85
X8.9Y-5.1
X8.95Y-4.475
X9.0Y-4.675
X9.05Y-4.8
X9.1Y-4.35
T2
X9.4888Y-1.5675
X9.4888Y-1.6069
X9.4888Y-1.6463
X9.4888Y-1.6856
X9.4888Y-1.725
X9.4888Y-1.7644
X9.4888Y-1.8037
X9.4888Y-1.8431
X9.4888Y-1.8825
X9.4888Y-4.0675
X9.4888Y-4.1069
X9.4888Y-4.1463
X9.4888Y-4.1856
X9.4888Y-4.225
X9.4888Y-4.2644
X9.4888Y-4.3037
X9.4888Y-4.3431
X9.4888Y-4.3825
X9.5281Y-1.5675
X9.5281Y-1.6069
X9.5281Y-1.6463
X9.5281Y-1.6856
X9.5281Y-1.725
X9.5281Y-1.7644
X9.5281Y-1.8037
X9.5281Y-1.8431
X9.5281Y-1.8825
X9.5281Y-4.0675
X9.5281Y-4.1069
X9.5281Y-4.1463
X9.5281Y-4.1856
X9.5281Y-4.225
X9.5281Y-4.2644
X9.5281Y-4.3037
X9.5281Y-4.3431
X9.5281Y-4.3825
X9.5675Y-1.5675
X9.5675Y-1.6069
X9.5675Y-1.6463
X9.5675Y-1.6856
X9.5675Y-1.725
X9.5675Y-1.7644
X9.5675Y-1.8037
X9.5675Y-1.8431
X9.5675Y-1.8825
X9.5675Y-4.0675
X9.5675Y-4.1069
X9.5675Y-4.1463
X9.5675Y-4.1856
X9.5675Y-4.225
X9.5675Y-4.2644
X9.5675Y-4.3037
X9.5675Y-4.3431
X9.5675Y-4.3825
X9.6069Y-1.5675
X9.6069Y-1.6069
X9.6069Y-1.6463
X9.6069Y-1.6856
X9.6069Y-1.725
X9.6069Y-1.7644
X9.6069Y-1.8037
X9.6069Y-1.8431
X9.6069Y-1.8825
X9.6069Y-4.0675
X9.6069Y-4.1069
X9.6069Y-4.1463
X9.6069Y-4.1856
X9.6069Y-4.225
X9.6069Y-4.2644
X9.6069Y-4.3037
X9.6069Y-4.3431
X9.6069Y-4.3825
X9.6463Y-1.5675
X9.6463Y-1.6069
X9.6463Y-1.6463
X9.6463Y-1.6856
X9.6463Y-1.725
X9.6463Y-1.7644
X9.6463Y-1.8037
X9.6463Y-1.8431
X9.6463Y-1.8825
X9.6463Y-4.0675
X9.6463Y-4.1069
X9.6463Y-4.1463
X9.6463Y-4.1856
X9.6463Y-4.225
X9.6463Y-4.2644
X9.6463Y-4.3037
X9.6463Y-4.3431
X9.6463Y-4.3825
X9.6856Y-1.5675
X9.6856Y-1.6069
X9.6856Y-1.6463
X9.6856Y-1.6856
X9.6856Y-1.725
X9.6856Y-1.7644
X9.6856Y-1.8037
X9.6856Y-1.8431
X9.6856Y-1.8825
X9.6856Y-4.0675
X9.6856Y-4.1069
X9.6856Y-4.1463
X9.6856Y-4.1856
X9.6856Y-4.225
X9.6856Y-4.2644
X9.6856Y-4.3037
X9.6856Y-4.3431
X9.6856Y-4.3825
X9.725Y-1.5675
X9.725Y-1.6069
X9.725Y-1.6463
X9.725Y-1.6856
X9.725Y-1.725
X9.725Y-1.7644
X9.725Y-1.8037
X9.725Y-1.8431
X9.725Y-1.8825
X9.725Y-4.0675
X9.725Y-4.1069
X9.725Y-4.1463
X9.725Y-4.1856
X9.725Y-4.225
X9.725Y-4.2644
X9.725Y-4.3037
X9.725Y-4.3431
X9.725Y-4.3825
X9.7644Y-1.5675
X9.7644Y-1.6069
X9.7644Y-1.6463
X9.7644Y-1.6856
X9.7644Y-1.725
X9.7644Y-1.7644
X9.7644Y-1.8037
X9.7644Y-1.8431
X9.7644Y-1.8825
X9.7644Y-4.0675
X9.7644Y-4.1069
X9.7644Y-4.1463
X9.7644Y-4.1856
X9.7644Y-4.225
X9.7644Y-4.2644
X9.7644Y-4.3037
X9.7644Y-4.3431
X9.7644Y-4.3825
T3
X2.7Y-4.775
X2.725Y-1.725
X2.9Y-1.725
X2.925Y-4.775
X2.95Y-2.625
X3.05Y-1.625
X4.025Y-2.625
X6.075Y-1.275
X6.125Y-1.05
X6.275Y-1.05
X6.325Y-1.275
X6.7704Y-1.2064
X9.55Y-1.175
X9.6Y-1.175
X9.65Y-1.175
X9.7Y-1.175
X9.75Y-1.175
X9.8Y-1.175
T5
X5.925Y-1.025
X5.925Y-1.225
X6.475Y-1.025
X6.475Y-1.225
T7
X3.1781Y-2.075
X3.1781Y-2.275
X3.375Y-2.075
X3.375Y-2.275
X3.6Y-1.675
X3.6Y-1.775
X3.6Y-1.875
X3.6Y-1.975
X3.6Y-2.075
X3.6Y-2.175
X3.6Y-2.275
X3.6Y-2.375
X3.6Y-2.925
X3.6Y-3.025
X3.6Y-3.125
X3.6Y-3.225
X3.6Y-3.325
X3.6Y-3.425
X3.6Y-3.525
X3.6Y-3.625
X3.6Y-4.275
X3.6Y-4.375
X3.6Y-4.475
X3.6Y-4.575
X3.6Y-4.675
X3.6Y-4.775
X3.6Y-4.875
X3.6Y-4.975
X3.7016Y-4.125
X3.7031Y-1.525
X3.8984Y-4.125
X3.9Y-1.525
X3.9Y-1.675
X3.9Y-1.775
X3.9Y-1.875
X3.9Y-1.975
X3.9Y-2.075
X3.9Y-2.175
X3.9Y-2.275
X3.9Y-2.375
X3.9Y-2.925
X3.9Y-3.025
X3.9Y-3.125
X3.9Y-3.225
X3.9Y-3.325
X3.9Y-3.425
X3.9Y-3.525
X3.9Y-3.625
X3.9Y-4.275
X3.9Y-4.375
X3.9Y-4.475
X3.9Y-4.575
X3.9Y-4.675
X3.9Y-4.775
X3.9Y-4.875
X3.9Y-4.975
X4.0266Y-2.95
X4.2234Y-2.95
X4.25Y-3.275
X4.25Y-3.375
X4.25Y-3.475
X4.25Y-3.575
X4.25Y-3.675
X4.25Y-3.775
X4.25Y-3.875
X4.25Y-3.975
X4.25Y-4.425
X4.25Y-4.525
X4.25Y-4.625
X4.25Y-4.725
X4.25Y-4.825
X4.25Y-4.925
X4.25Y-5.025
X4.35Y-1.425
X4.35Y-1.525
X4.35Y-1.625
X4.35Y-1.725
X4.35Y-1.825
X4.35Y-1.925
X4.35Y-2.025
X4.35Y-2.125
X4.35Y-2.225
X4.35Y-2.325
X4.35Y-3.125
X4.3516Y-2.475
X4.3516Y-4.275
X4.5469Y-3.125
X4.5484Y-2.475
X4.5484Y-4.275
X4.55Y-3.275
X4.55Y-3.375
X4.55Y-3.475
X4.55Y-3.575
X4.55Y-3.675
X4.55Y-3.775
X4.55Y-3.875
X4.55Y-3.975
X4.55Y-4.425
X4.55Y-4.525
X4.55Y-4.625
X4.55Y-4.725
X4.55Y-4.825
X4.55Y-4.925
X4.55Y-5.025
X4.65Y-1.425
X4.65Y-1.525
X4.65Y-1.625
X4.65Y-1.725
X4.65Y-1.825
X4.65Y-1.925
X4.65Y-2.025
X4.65Y-2.125
X4.65Y-2.225
X4.65Y-2.325
X4.775Y-5.58
X4.775Y-5.7769
X4.925Y-5.075
X4.925Y-5.175
X4.925Y-5.275
X4.925Y-5.375
X4.925Y-5.475
X4.925Y-5.575
X4.925Y-5.675
X4.925Y-5.775
X5.0Y-1.75
X5.0Y-1.85
X5.0Y-1.95
X5.0Y-2.05
X5.0Y-2.15
X5.0Y-2.25
X5.0Y-2.35
X5.0Y-2.45
X5.0281Y-4.925
X5.0766Y-1.14
X5.1016Y-1.6
X5.125Y-2.975
X5.125Y-3.075
X5.125Y-3.175
X5.125Y-3.275
X5.125Y-3.375
X5.125Y-3.475
X5.125Y-3.575
X5.125Y-3.675
X5.125Y-3.775
X5.125Y-3.875
X5.125Y-4.1
X5.125Y-4.4266
X5.125Y-4.525
X5.175Y-1.14
X5.225Y-4.925
X5.225Y-5.075
X5.225Y-5.175
X5.225Y-5.275
X5.225Y-5.375
X5.225Y-5.475
X5.225Y-5.575
X5.225Y-5.675
X5.225Y-5.775
X5.275Y-6.075
X5.275Y-6.375
X5.2984Y-1.6
X5.3Y-1.75
X5.3Y-1.85
X5.3Y-1.95
X5.3Y-2.05
X5.3Y-2.15
X5.3Y-2.25
X5.3Y-2.35
X5.3Y-2.45
X5.3219Y-4.1
X5.425Y-2.975
X5.425Y-3.075
X5.425Y-3.175
X5.425Y-3.275
X5.425Y-3.375
X5.425Y-3.475
X5.425Y-3.575
X5.425Y-3.675
X5.425Y-3.775
X5.425Y-3.875
X5.425Y-6.075
X5.425Y-6.375
X5.4984Y-1.85
X5.4984Y-1.95
X5.4984Y-2.05
X5.4984Y-2.15
X5.4984Y-2.25
X5.4984Y-2.35
X5.4984Y-2.45
X5.4984Y-2.55
X5.4984Y-2.65
X5.4984Y-2.75
X5.5Y-5.075
X5.5Y-5.175
X5.5Y-5.275
X5.5Y-5.375
X5.5Y-5.475
X5.5Y-5.575
X5.5Y-5.675
X5.5Y-5.775
X5.575Y-6.075
X5.575Y-6.375
X5.6Y-1.7
X5.6031Y-4.925
X5.725Y-6.075
X5.725Y-6.375
X5.7969Y-1.7
X5.7984Y-1.85
X5.7984Y-1.95
X5.7984Y-2.05
X5.7984Y-2.15
X5.7984Y-2.25
X5.7984Y-2.35
X5.7984Y-2.45
X5.7984Y-2.55
X5.7984Y-2.65
X5.7984Y-2.75
X5.8Y-4.925
X5.8Y-5.075
X5.8Y-5.175
X5.8Y-5.275
X5.8Y-5.375
X5.8Y-5.475
X5.8Y-5.575
X5.8Y-5.675
X5.8Y-5.775
X6.0313Y-6.0766
X6.0313Y-6.2734
X6.1996Y-6.0746
X6.1996Y-6.3746
X6.2996Y-6.0746
X6.2996Y-6.3746
X6.3996Y-6.0746
X6.3996Y-6.3746
X6.4996Y-6.0746
X6.4996Y-6.3746
X6.5996Y-6.0746
X6.5996Y-6.3746
X6.6996Y-6.0746
X6.6996Y-6.3746
X6.7996Y-6.0746
X6.7996Y-6.3746
X6.8996Y-6.0746
X6.8996Y-6.3746
X7.15Y-6.075
X7.15Y-6.375
X7.25Y-6.075
X7.25Y-6.375
X7.35Y-6.075
X7.35Y-6.375
X7.45Y-6.075
X7.45Y-6.375
X7.55Y-6.075
X7.55Y-6.375
X7.65Y-6.075
X7.65Y-6.375
X7.75Y-6.075
X7.75Y-6.375
X7.9Y-6.175
X7.9Y-6.3719
X8.125Y-6.075
X8.125Y-6.375
X8.275Y-6.075
X8.275Y-6.375
X8.5419Y-6.216
X8.5419Y-6.3152
X8.6207Y-6.216
X8.6207Y-6.316
X8.6994Y-6.216
X8.6994Y-6.316
X8.7781Y-6.216
X8.7781Y-6.316
X8.8569Y-6.216
X8.8569Y-6.316
X8.9356Y-6.216
X8.9356Y-6.316
X9.2Y-6.1
X9.5Y-6.1
X9.65Y-6.1
X9.95Y-6.1
T8
X9.3Y-6.3
X9.4Y-6.3
X9.75Y-6.3
X9.85Y-6.3
T9
X7.2Y-1.45
X7.2Y-1.65
X7.2Y-2.7
X7.2Y-2.9
X7.2Y-3.95
X7.2Y-4.15
X7.2Y-5.2
X7.2Y-5.4
X7.3Y-1.45
X7.3Y-1.65
X7.3Y-2.7
X7.3Y-2.9
X7.3Y-3.95
X7.3Y-4.15
X7.3Y-5.2
X7.3Y-5.4
X7.4Y-1.45
X7.4Y-1.65
X7.4Y-2.7
X7.4Y-2.9
X7.4Y-3.95
X7.4Y-4.15
X7.4Y-5.2
X7.4Y-5.4
X7.5Y-1.45
X7.5Y-1.65
X7.5Y-2.7
X7.5Y-2.9
X7.5Y-3.95
X7.5Y-4.15
X7.5Y-5.2
X7.5Y-5.4
X7.6Y-1.45
X7.6Y-1.65
X7.6Y-2.7
X7.6Y-2.9
X7.6Y-3.95
X7.6Y-4.15
X7.6Y-5.2
X7.6Y-5.4
X7.7Y-1.45
X7.7Y-1.65
X7.7Y-2.7
X7.7Y-2.9
X7.7Y-3.95
X7.7Y-4.15
X7.7Y-5.2
X7.7Y-5.4
X7.8Y-1.45
X7.8Y-1.65
X7.8Y-2.7
X7.8Y-2.9
X7.8Y-3.95
X7.8Y-4.15
X7.8Y-5.2
X7.8Y-5.4
X7.9Y-1.45
X7.9Y-1.65
X7.9Y-2.7
X7.9Y-2.9
X7.9Y-3.95
X7.9Y-4.15
X7.9Y-5.2
X7.9Y-5.4
X8.0Y-1.45
X8.0Y-1.65
X8.0Y-2.7
X8.0Y-2.9
X8.0Y-3.95
X8.0Y-4.15
X8.0Y-5.2
X8.0Y-5.4
X8.1Y-1.45
X8.1Y-1.65
X8.1Y-2.7
X8.1Y-2.9
X8.1Y-3.95
X8.1Y-4.15
X8.1Y-5.2
X8.1Y-5.4
X8.2Y-1.45
X8.2Y-1.65
X8.2Y-2.7
X8.2Y-2.9
X8.2Y-3.95
X8.2Y-4.15
X8.2Y-5.2
X8.2Y-5.4
X8.3Y-1.45
X8.3Y-1.65
X8.3Y-2.7
X8.3Y-2.9
X8.3Y-3.95
X8.3Y-4.15
X8.3Y-5.2
X8.3Y-5.4
X8.4Y-1.45
X8.4Y-1.65
X8.4Y-2.7
X8.4Y-2.9
X8.4Y-3.95
X8.4Y-4.15
X8.4Y-5.2
X8.4Y-5.4
X8.5Y-1.45
X8.5Y-1.65
X8.5Y-2.7
X8.5Y-2.9
X8.5Y-3.95
X8.5Y-4.15
X8.5Y-5.2
X8.5Y-5.4
X8.6Y-1.45
X8.6Y-1.65
X8.6Y-2.7
X8.6Y-2.9
X8.6Y-3.95
X8.6Y-4.15
X8.6Y-5.2
X8.6Y-5.4
X8.7Y-1.45
X8.7Y-1.65
X8.7Y-2.7
X8.7Y-2.9
X8.7Y-3.95
X8.7Y-4.15
X8.7Y-5.2
X8.7Y-5.4
X8.8Y-1.45
X8.8Y-1.65
X8.8Y-2.7
X8.8Y-2.9
X8.8Y-3.95
X8.8Y-4.15
X8.8Y-5.2
X8.8Y-5.4
X8.9Y-1.45
X8.9Y-1.65
X8.9Y-2.7
X8.9Y-2.9
X8.9Y-3.95
X8.9Y-4.15
X8.9Y-5.2
X8.9Y-5.4
X9.0Y-1.45
X9.0Y-1.65
X9.0Y-2.7
X9.0Y-2.9
X9.0Y-3.95
X9.0Y-4.15
X9.0Y-5.2
X9.0Y-5.4
X9.1Y-1.45
X9.1Y-1.65
X9.1Y-2.7
X9.1Y-2.9
X9.1Y-3.95
X9.1Y-4.15
X9.1Y-5.2
X9.1Y-5.4
T10
X8.475Y-6.14
X9.0026Y-6.392
T11
X2.75Y-1.415
X2.75Y-5.015
X4.8Y-1.125
X4.8Y-6.3
X6.55Y-3.631
X10.175Y-1.125
X10.175Y-3.63
X10.175Y-6.3
T4
G00X6.0299Y-1.0553
M15
G01X6.0299Y-1.0317
M16
G05
G00X6.0299Y-1.2049
M15
G01X6.0299Y-1.1813
M16
G05
G00X6.3701Y-1.0553
M15
G01X6.3701Y-1.0317
M16
G05
G00X6.3701Y-1.2049
M15
G01X6.3701Y-1.1813
M16
G05
T6
G00X6.684Y-1.0358
M15
G01X6.684Y-1.0142
M16
G05
G00X6.7265Y-1.1392
M15
G01X6.7167Y-1.1392
M16
G05
G00X6.9233Y-1.1392
M15
G01X6.9135Y-1.1392
M16
G05
G00X6.956Y-1.0358
M15
G01X6.956Y-1.0142
M16
G05
T9
G00X5.365Y-1.2175
M15
G01X5.365Y-1.2963
M16
G05
G00X5.5894Y-1.1388
M15
G01X5.5106Y-1.1388
M16
G05
G00X5.5894Y-1.375
M15
G01X5.5106Y-1.375
M16
G05
M30
