%TF.GenerationSoftware,KiCad,Pcbnew,8.0.2*%
%TF.CreationDate,2024-06-10T22:31:20-05:00*%
%TF.ProjectId,Tandy Color Computer Multi-Pak,54616e64-7920-4436-9f6c-6f7220436f6d,rev?*%
%TF.SameCoordinates,Original*%
%TF.FileFunction,Soldermask,Bot*%
%TF.FilePolarity,Negative*%
%FSLAX46Y46*%
G04 Gerber Fmt 4.6, Leading zero omitted, Abs format (unit mm)*
G04 Created by KiCad (PCBNEW 8.0.2) date 2024-06-10 22:31:20*
%MOMM*%
%LPD*%
G01*
G04 APERTURE LIST*
G04 Aperture macros list*
%AMRoundRect*
0 Rectangle with rounded corners*
0 $1 Rounding radius*
0 $2 $3 $4 $5 $6 $7 $8 $9 X,Y pos of 4 corners*
0 Add a 4 corners polygon primitive as box body*
4,1,4,$2,$3,$4,$5,$6,$7,$8,$9,$2,$3,0*
0 Add four circle primitives for the rounded corners*
1,1,$1+$1,$2,$3*
1,1,$1+$1,$4,$5*
1,1,$1+$1,$6,$7*
1,1,$1+$1,$8,$9*
0 Add four rect primitives between the rounded corners*
20,1,$1+$1,$2,$3,$4,$5,0*
20,1,$1+$1,$4,$5,$6,$7,0*
20,1,$1+$1,$6,$7,$8,$9,0*
20,1,$1+$1,$8,$9,$2,$3,0*%
%AMFreePoly0*
4,1,19,0.499999,-0.750000,0.000000,-0.750000,0.000000,-0.744912,-0.071157,-0.744911,-0.207708,-0.704816,-0.327430,-0.627875,-0.420627,-0.520320,-0.479746,-0.390866,-0.500000,-0.250000,-0.500000,0.250000,-0.479746,0.390866,-0.420627,0.520320,-0.327430,0.627875,-0.207708,0.704816,-0.071157,0.744911,0.000000,0.744912,0.000000,0.750000,0.499999,0.750000,0.499999,-0.750000,0.499999,-0.750000,
$1*%
%AMFreePoly1*
4,1,19,0.000000,0.744912,0.071157,0.744911,0.207708,0.704816,0.327430,0.627875,0.420627,0.520320,0.479746,0.390866,0.500000,0.250000,0.500000,-0.250000,0.479746,-0.390866,0.420627,-0.520320,0.327430,-0.627875,0.207708,-0.704816,0.071157,-0.744911,0.000000,-0.744912,0.000000,-0.750000,-0.499999,-0.750000,-0.499999,0.750000,0.000000,0.750000,0.000000,0.744912,0.000000,0.744912,
$1*%
%AMFreePoly2*
4,1,39,9.728681,4.560972,9.765068,4.511016,9.770000,4.480224,9.790000,-4.459776,9.771033,-4.518597,9.721114,-4.555036,9.690120,-4.560000,1.370120,-4.570000,1.311319,-4.550972,1.274932,-4.501016,1.270001,-4.470538,1.250536,-0.850000,0.650000,-0.850000,0.591221,-0.830902,0.554894,-0.780902,0.550000,-0.750000,-0.625000,-0.750000,-0.732001,-0.734410,-0.842904,-0.680193,-0.930193,-0.592904,
-0.984410,-0.482001,-1.000000,-0.375000,-1.000000,0.375000,-0.984410,0.482001,-0.930193,0.592904,-0.842904,0.680193,-0.732001,0.734410,-0.625000,0.750000,0.550000,0.750000,0.569098,0.808779,0.619098,0.845106,0.650000,0.850000,1.250000,0.850000,1.250000,4.470000,1.269098,4.528779,1.319098,4.565106,1.349880,4.570000,9.669880,4.580000,9.728681,4.560972,9.728681,4.560972,
$1*%
G04 Aperture macros list end*
%ADD10C,0.010000*%
%ADD11C,2.100000*%
%ADD12C,1.400000*%
%ADD13R,1.800000X1.800000*%
%ADD14C,1.800000*%
%ADD15R,3.500000X3.500000*%
%ADD16RoundRect,0.750000X-1.000000X0.750000X-1.000000X-0.750000X1.000000X-0.750000X1.000000X0.750000X0*%
%ADD17RoundRect,0.875000X-0.875000X0.875000X-0.875000X-0.875000X0.875000X-0.875000X0.875000X0.875000X0*%
%ADD18RoundRect,0.102000X-4.762500X0.635000X-4.762500X-0.635000X4.762500X-0.635000X4.762500X0.635000X0*%
%ADD19RoundRect,0.102000X-4.500000X3.000000X-4.500000X-3.000000X4.500000X-3.000000X4.500000X3.000000X0*%
%ADD20O,1.100000X1.700000*%
%ADD21C,3.200000*%
%ADD22C,1.600000*%
%ADD23O,1.600000X1.600000*%
%ADD24O,1.400000X1.400000*%
%ADD25R,1.700000X1.700000*%
%ADD26C,1.700000*%
%ADD27O,1.604000X1.354000*%
%ADD28R,1.600000X1.600000*%
%ADD29RoundRect,0.250001X0.924999X-0.499999X0.924999X0.499999X-0.924999X0.499999X-0.924999X-0.499999X0*%
%ADD30FreePoly0,45.000000*%
%ADD31FreePoly1,45.000000*%
%ADD32R,1.500000X1.000000*%
%ADD33RoundRect,0.250001X-0.924999X0.499999X-0.924999X-0.499999X0.924999X-0.499999X0.924999X0.499999X0*%
%ADD34RoundRect,0.375000X0.625000X0.375000X-0.625000X0.375000X-0.625000X-0.375000X0.625000X-0.375000X0*%
%ADD35FreePoly2,180.000000*%
%ADD36RoundRect,0.500000X0.500000X1.400000X-0.500000X1.400000X-0.500000X-1.400000X0.500000X-1.400000X0*%
G04 APERTURE END LIST*
D10*
%TO.C,P1*%
X73101200Y-55422800D02*
X73101200Y-108762800D01*
X63271400Y-108585000D01*
X63271400Y-55245000D01*
X73101200Y-55422800D01*
G36*
X73101200Y-55422800D02*
G01*
X73101200Y-108762800D01*
X63271400Y-108585000D01*
X63271400Y-55245000D01*
X73101200Y-55422800D01*
G37*
%TO.C,J2*%
X170628000Y-26985000D02*
X169783000Y-26985000D01*
X169747000Y-26984000D01*
X169712000Y-26981000D01*
X169677000Y-26977000D01*
X169642000Y-26970000D01*
X169607000Y-26962000D01*
X169573000Y-26952000D01*
X169539000Y-26940000D01*
X169506000Y-26926000D01*
X169474000Y-26911000D01*
X169443000Y-26894000D01*
X169413000Y-26875000D01*
X169383000Y-26855000D01*
X169355000Y-26833000D01*
X169328000Y-26810000D01*
X169302000Y-26786000D01*
X169278000Y-26760000D01*
X169255000Y-26733000D01*
X169233000Y-26705000D01*
X169213000Y-26675000D01*
X169194000Y-26645000D01*
X169177000Y-26614000D01*
X169162000Y-26582000D01*
X169148000Y-26549000D01*
X169136000Y-26515000D01*
X169126000Y-26481000D01*
X169118000Y-26446000D01*
X169111000Y-26411000D01*
X169107000Y-26376000D01*
X169104000Y-26341000D01*
X169103000Y-26305000D01*
X169103000Y-25765000D01*
X169104000Y-25729000D01*
X169107000Y-25694000D01*
X169111000Y-25659000D01*
X169118000Y-25624000D01*
X169126000Y-25589000D01*
X169136000Y-25555000D01*
X169148000Y-25521000D01*
X169162000Y-25488000D01*
X169177000Y-25456000D01*
X169194000Y-25425000D01*
X169213000Y-25395000D01*
X169233000Y-25365000D01*
X169255000Y-25337000D01*
X169278000Y-25310000D01*
X169302000Y-25284000D01*
X169328000Y-25260000D01*
X169355000Y-25237000D01*
X169383000Y-25215000D01*
X169413000Y-25195000D01*
X169443000Y-25176000D01*
X169474000Y-25159000D01*
X169506000Y-25144000D01*
X169539000Y-25130000D01*
X169573000Y-25118000D01*
X169607000Y-25108000D01*
X169642000Y-25100000D01*
X169677000Y-25093000D01*
X169712000Y-25089000D01*
X169747000Y-25086000D01*
X169783000Y-25085000D01*
X170628000Y-25085000D01*
X170628000Y-26985000D01*
G36*
X170628000Y-26985000D02*
G01*
X169783000Y-26985000D01*
X169747000Y-26984000D01*
X169712000Y-26981000D01*
X169677000Y-26977000D01*
X169642000Y-26970000D01*
X169607000Y-26962000D01*
X169573000Y-26952000D01*
X169539000Y-26940000D01*
X169506000Y-26926000D01*
X169474000Y-26911000D01*
X169443000Y-26894000D01*
X169413000Y-26875000D01*
X169383000Y-26855000D01*
X169355000Y-26833000D01*
X169328000Y-26810000D01*
X169302000Y-26786000D01*
X169278000Y-26760000D01*
X169255000Y-26733000D01*
X169233000Y-26705000D01*
X169213000Y-26675000D01*
X169194000Y-26645000D01*
X169177000Y-26614000D01*
X169162000Y-26582000D01*
X169148000Y-26549000D01*
X169136000Y-26515000D01*
X169126000Y-26481000D01*
X169118000Y-26446000D01*
X169111000Y-26411000D01*
X169107000Y-26376000D01*
X169104000Y-26341000D01*
X169103000Y-26305000D01*
X169103000Y-25765000D01*
X169104000Y-25729000D01*
X169107000Y-25694000D01*
X169111000Y-25659000D01*
X169118000Y-25624000D01*
X169126000Y-25589000D01*
X169136000Y-25555000D01*
X169148000Y-25521000D01*
X169162000Y-25488000D01*
X169177000Y-25456000D01*
X169194000Y-25425000D01*
X169213000Y-25395000D01*
X169233000Y-25365000D01*
X169255000Y-25337000D01*
X169278000Y-25310000D01*
X169302000Y-25284000D01*
X169328000Y-25260000D01*
X169355000Y-25237000D01*
X169383000Y-25215000D01*
X169413000Y-25195000D01*
X169443000Y-25176000D01*
X169474000Y-25159000D01*
X169506000Y-25144000D01*
X169539000Y-25130000D01*
X169573000Y-25118000D01*
X169607000Y-25108000D01*
X169642000Y-25100000D01*
X169677000Y-25093000D01*
X169712000Y-25089000D01*
X169747000Y-25086000D01*
X169783000Y-25085000D01*
X170628000Y-25085000D01*
X170628000Y-26985000D01*
G37*
X176709000Y-25086000D02*
X176744000Y-25089000D01*
X176779000Y-25093000D01*
X176814000Y-25100000D01*
X176849000Y-25108000D01*
X176883000Y-25118000D01*
X176917000Y-25130000D01*
X176950000Y-25144000D01*
X176982000Y-25159000D01*
X177013000Y-25176000D01*
X177043000Y-25195000D01*
X177073000Y-25215000D01*
X177101000Y-25237000D01*
X177128000Y-25260000D01*
X177154000Y-25284000D01*
X177178000Y-25310000D01*
X177201000Y-25337000D01*
X177223000Y-25365000D01*
X177243000Y-25395000D01*
X177262000Y-25425000D01*
X177279000Y-25456000D01*
X177294000Y-25488000D01*
X177308000Y-25521000D01*
X177320000Y-25555000D01*
X177330000Y-25589000D01*
X177338000Y-25624000D01*
X177345000Y-25659000D01*
X177349000Y-25694000D01*
X177352000Y-25729000D01*
X177353000Y-25765000D01*
X177353000Y-26305000D01*
X177352000Y-26341000D01*
X177349000Y-26376000D01*
X177345000Y-26411000D01*
X177338000Y-26446000D01*
X177330000Y-26481000D01*
X177320000Y-26515000D01*
X177308000Y-26549000D01*
X177294000Y-26582000D01*
X177279000Y-26614000D01*
X177262000Y-26645000D01*
X177243000Y-26675000D01*
X177223000Y-26705000D01*
X177201000Y-26733000D01*
X177178000Y-26760000D01*
X177154000Y-26786000D01*
X177128000Y-26810000D01*
X177101000Y-26833000D01*
X177073000Y-26855000D01*
X177043000Y-26875000D01*
X177013000Y-26894000D01*
X176982000Y-26911000D01*
X176950000Y-26926000D01*
X176917000Y-26940000D01*
X176883000Y-26952000D01*
X176849000Y-26962000D01*
X176814000Y-26970000D01*
X176779000Y-26977000D01*
X176744000Y-26981000D01*
X176709000Y-26984000D01*
X176673000Y-26985000D01*
X175828000Y-26985000D01*
X175828000Y-25085000D01*
X176673000Y-25085000D01*
X176709000Y-25086000D01*
G36*
X176709000Y-25086000D02*
G01*
X176744000Y-25089000D01*
X176779000Y-25093000D01*
X176814000Y-25100000D01*
X176849000Y-25108000D01*
X176883000Y-25118000D01*
X176917000Y-25130000D01*
X176950000Y-25144000D01*
X176982000Y-25159000D01*
X177013000Y-25176000D01*
X177043000Y-25195000D01*
X177073000Y-25215000D01*
X177101000Y-25237000D01*
X177128000Y-25260000D01*
X177154000Y-25284000D01*
X177178000Y-25310000D01*
X177201000Y-25337000D01*
X177223000Y-25365000D01*
X177243000Y-25395000D01*
X177262000Y-25425000D01*
X177279000Y-25456000D01*
X177294000Y-25488000D01*
X177308000Y-25521000D01*
X177320000Y-25555000D01*
X177330000Y-25589000D01*
X177338000Y-25624000D01*
X177345000Y-25659000D01*
X177349000Y-25694000D01*
X177352000Y-25729000D01*
X177353000Y-25765000D01*
X177353000Y-26305000D01*
X177352000Y-26341000D01*
X177349000Y-26376000D01*
X177345000Y-26411000D01*
X177338000Y-26446000D01*
X177330000Y-26481000D01*
X177320000Y-26515000D01*
X177308000Y-26549000D01*
X177294000Y-26582000D01*
X177279000Y-26614000D01*
X177262000Y-26645000D01*
X177243000Y-26675000D01*
X177223000Y-26705000D01*
X177201000Y-26733000D01*
X177178000Y-26760000D01*
X177154000Y-26786000D01*
X177128000Y-26810000D01*
X177101000Y-26833000D01*
X177073000Y-26855000D01*
X177043000Y-26875000D01*
X177013000Y-26894000D01*
X176982000Y-26911000D01*
X176950000Y-26926000D01*
X176917000Y-26940000D01*
X176883000Y-26952000D01*
X176849000Y-26962000D01*
X176814000Y-26970000D01*
X176779000Y-26977000D01*
X176744000Y-26981000D01*
X176709000Y-26984000D01*
X176673000Y-26985000D01*
X175828000Y-26985000D01*
X175828000Y-25085000D01*
X176673000Y-25085000D01*
X176709000Y-25086000D01*
G37*
%TD*%
D11*
%TO.C,SW1*%
X215265000Y-155956000D03*
X228665000Y-162356000D03*
D12*
X216965000Y-160406000D03*
X216965000Y-157886000D03*
X218965000Y-160426000D03*
X218965000Y-157886000D03*
X224965000Y-160426000D03*
X224965000Y-157886000D03*
X226965000Y-160426000D03*
X226965000Y-157886000D03*
X220965000Y-160426000D03*
X222965000Y-160426000D03*
X220965000Y-157886000D03*
X222965000Y-157886000D03*
%TD*%
D13*
%TO.C,D2*%
X247650000Y-160020000D03*
D14*
X250190000Y-160020000D03*
%TD*%
D13*
%TO.C,D1*%
X236220000Y-160020000D03*
D14*
X238760000Y-160020000D03*
%TD*%
D15*
%TO.C,J1*%
X140970000Y-34925000D03*
D16*
X140970000Y-28925000D03*
D17*
X136270000Y-31925000D03*
%TD*%
D18*
%TO.C,P1*%
X68580000Y-57785000D03*
X68580000Y-60325000D03*
X68580000Y-62865000D03*
X68580000Y-65405000D03*
X68580000Y-67945000D03*
X68580000Y-70485000D03*
X68580000Y-73025000D03*
X68580000Y-75565000D03*
X68580000Y-78105000D03*
X68580000Y-80645000D03*
X68580000Y-83185000D03*
X68580000Y-85725000D03*
X68580000Y-88265000D03*
X68580000Y-90805000D03*
X68580000Y-93345000D03*
X68580000Y-95885000D03*
X68580000Y-98425000D03*
X68580000Y-100965000D03*
X68580000Y-103505000D03*
X68580000Y-106045000D03*
D19*
X71174400Y-48615000D03*
X71174400Y-115215000D03*
%TD*%
D20*
%TO.C,J4*%
X161800000Y-30305000D03*
X153160000Y-30305000D03*
X161800000Y-26505000D03*
X153160000Y-26505000D03*
%TD*%
D21*
%TO.C,H5*%
X258445000Y-160020000D03*
%TD*%
D22*
%TO.C,C6*%
X99020000Y-104775000D03*
X94020000Y-104775000D03*
%TD*%
%TO.C,C7*%
X110530000Y-62865000D03*
X115530000Y-62865000D03*
%TD*%
%TO.C,C3*%
X121285000Y-146732000D03*
X121285000Y-141732000D03*
%TD*%
D21*
%TO.C,H1*%
X69850000Y-35941000D03*
%TD*%
D22*
%TO.C,R6*%
X206375000Y-161925000D03*
D23*
X206375000Y-154305000D03*
%TD*%
D12*
%TO.C,R9*%
X150495000Y-26035000D03*
D24*
X150495000Y-31115000D03*
%TD*%
D21*
%TO.C,H3*%
X121920000Y-160020000D03*
%TD*%
D25*
%TO.C,P4*%
X182880000Y-73660000D03*
D26*
X182880000Y-68580000D03*
X185420000Y-73660000D03*
X185420000Y-68580000D03*
X187960000Y-73660000D03*
X187960000Y-68580000D03*
X190500000Y-73660000D03*
X190500000Y-68580000D03*
X193040000Y-73660000D03*
X193040000Y-68580000D03*
X195580000Y-73660000D03*
X195580000Y-68580000D03*
X198120000Y-73660000D03*
X198120000Y-68580000D03*
X200660000Y-73660000D03*
X200660000Y-68580000D03*
X203200000Y-73660000D03*
X203200000Y-68580000D03*
X205740000Y-73660000D03*
X205740000Y-68580000D03*
X208280000Y-73660000D03*
X208280000Y-68580000D03*
X210820000Y-73660000D03*
X210820000Y-68580000D03*
X213360000Y-73660000D03*
X213360000Y-68580000D03*
X215900000Y-73660000D03*
X215900000Y-68580000D03*
X218440000Y-73660000D03*
X218440000Y-68580000D03*
X220980000Y-73660000D03*
X220980000Y-68580000D03*
X223520000Y-73660000D03*
X223520000Y-68580000D03*
X226060000Y-73660000D03*
X226060000Y-68580000D03*
X228600000Y-73660000D03*
X228600000Y-68580000D03*
X231140000Y-73660000D03*
X231140000Y-68580000D03*
%TD*%
D21*
%TO.C,H8*%
X258445000Y-92202000D03*
%TD*%
D22*
%TO.C,C13*%
X132715000Y-125095000D03*
X127715000Y-125095000D03*
%TD*%
D21*
%TO.C,H6*%
X258445000Y-28575000D03*
%TD*%
D22*
%TO.C,C11*%
X130175000Y-104140000D03*
X135175000Y-104140000D03*
%TD*%
D21*
%TO.C,H7*%
X166370000Y-92227400D03*
%TD*%
D27*
%TO.C,J2*%
X175728000Y-28935000D03*
X170728000Y-28935000D03*
%TD*%
D28*
%TO.C,U6*%
X91440000Y-74295000D03*
D23*
X91440000Y-76835000D03*
X91440000Y-79375000D03*
X91440000Y-81915000D03*
X91440000Y-84455000D03*
X91440000Y-86995000D03*
X91440000Y-89535000D03*
X91440000Y-92075000D03*
X99060000Y-92075000D03*
X99060000Y-89535000D03*
X99060000Y-86995000D03*
X99060000Y-84455000D03*
X99060000Y-81915000D03*
X99060000Y-79375000D03*
X99060000Y-76835000D03*
X99060000Y-74295000D03*
%TD*%
D22*
%TO.C,R3*%
X141605000Y-161925000D03*
D23*
X141605000Y-154305000D03*
%TD*%
D12*
%TO.C,R10*%
X164465000Y-26035000D03*
D24*
X164465000Y-31115000D03*
%TD*%
D22*
%TO.C,C12*%
X147240000Y-43180000D03*
X142240000Y-43180000D03*
%TD*%
D21*
%TO.C,H4*%
X121920000Y-28575000D03*
%TD*%
D28*
%TO.C,U4*%
X139660000Y-46990000D03*
D23*
X139660000Y-49530000D03*
X139660000Y-52070000D03*
X139660000Y-54610000D03*
X139660000Y-57150000D03*
X139660000Y-59690000D03*
X139660000Y-62230000D03*
X139660000Y-64770000D03*
X139660000Y-67310000D03*
X139660000Y-69850000D03*
X147280000Y-69850000D03*
X147280000Y-67310000D03*
X147280000Y-64770000D03*
X147280000Y-62230000D03*
X147280000Y-59690000D03*
X147280000Y-57150000D03*
X147280000Y-54610000D03*
X147280000Y-52070000D03*
X147280000Y-49530000D03*
X147280000Y-46990000D03*
%TD*%
D28*
%TO.C,U1*%
X91440000Y-42545000D03*
D23*
X91440000Y-45085000D03*
X91440000Y-47625000D03*
X91440000Y-50165000D03*
X91440000Y-52705000D03*
X91440000Y-55245000D03*
X91440000Y-57785000D03*
X91440000Y-60325000D03*
X99060000Y-60325000D03*
X99060000Y-57785000D03*
X99060000Y-55245000D03*
X99060000Y-52705000D03*
X99060000Y-50165000D03*
X99060000Y-47625000D03*
X99060000Y-45085000D03*
X99060000Y-42545000D03*
%TD*%
D21*
%TO.C,H2*%
X69850000Y-127381000D03*
%TD*%
D28*
%TO.C,U11*%
X125095000Y-128905000D03*
D23*
X125095000Y-131445000D03*
X125095000Y-133985000D03*
X125095000Y-136525000D03*
X125095000Y-139065000D03*
X125095000Y-141605000D03*
X125095000Y-144145000D03*
X125095000Y-146685000D03*
X132715000Y-146685000D03*
X132715000Y-144145000D03*
X132715000Y-141605000D03*
X132715000Y-139065000D03*
X132715000Y-136525000D03*
X132715000Y-133985000D03*
X132715000Y-131445000D03*
X132715000Y-128905000D03*
%TD*%
D22*
%TO.C,C14*%
X147320000Y-125095000D03*
X142320000Y-125095000D03*
%TD*%
%TO.C,R7*%
X233680000Y-154940000D03*
D23*
X241300000Y-154940000D03*
%TD*%
D25*
%TO.C,P5*%
X182880000Y-41910000D03*
D26*
X182880000Y-36830000D03*
X185420000Y-41910000D03*
X185420000Y-36830000D03*
X187960000Y-41910000D03*
X187960000Y-36830000D03*
X190500000Y-41910000D03*
X190500000Y-36830000D03*
X193040000Y-41910000D03*
X193040000Y-36830000D03*
X195580000Y-41910000D03*
X195580000Y-36830000D03*
X198120000Y-41910000D03*
X198120000Y-36830000D03*
X200660000Y-41910000D03*
X200660000Y-36830000D03*
X203200000Y-41910000D03*
X203200000Y-36830000D03*
X205740000Y-41910000D03*
X205740000Y-36830000D03*
X208280000Y-41910000D03*
X208280000Y-36830000D03*
X210820000Y-41910000D03*
X210820000Y-36830000D03*
X213360000Y-41910000D03*
X213360000Y-36830000D03*
X215900000Y-41910000D03*
X215900000Y-36830000D03*
X218440000Y-41910000D03*
X218440000Y-36830000D03*
X220980000Y-41910000D03*
X220980000Y-36830000D03*
X223520000Y-41910000D03*
X223520000Y-36830000D03*
X226060000Y-41910000D03*
X226060000Y-36830000D03*
X228600000Y-41910000D03*
X228600000Y-36830000D03*
X231140000Y-41910000D03*
X231140000Y-36830000D03*
%TD*%
D22*
%TO.C,C15*%
X153195000Y-154345000D03*
X153195000Y-159345000D03*
%TD*%
D28*
%TO.C,U7*%
X107950000Y-83185000D03*
D23*
X107950000Y-85725000D03*
X107950000Y-88265000D03*
X107950000Y-90805000D03*
X107950000Y-93345000D03*
X107950000Y-95885000D03*
X107950000Y-98425000D03*
X107950000Y-100965000D03*
X115570000Y-100965000D03*
X115570000Y-98425000D03*
X115570000Y-95885000D03*
X115570000Y-93345000D03*
X115570000Y-90805000D03*
X115570000Y-88265000D03*
X115570000Y-85725000D03*
X115570000Y-83185000D03*
%TD*%
D28*
%TO.C,U9*%
X91440000Y-108585000D03*
D23*
X91440000Y-111125000D03*
X91440000Y-113665000D03*
X91440000Y-116205000D03*
X91440000Y-118745000D03*
X91440000Y-121285000D03*
X91440000Y-123825000D03*
X91440000Y-126365000D03*
X99060000Y-126365000D03*
X99060000Y-123825000D03*
X99060000Y-121285000D03*
X99060000Y-118745000D03*
X99060000Y-116205000D03*
X99060000Y-113665000D03*
X99060000Y-111125000D03*
X99060000Y-108585000D03*
%TD*%
D22*
%TO.C,C5*%
X102275000Y-74930000D03*
X107275000Y-74930000D03*
%TD*%
D28*
%TO.C,U8*%
X137795000Y-98425000D03*
D23*
X137795000Y-95885000D03*
X137795000Y-93345000D03*
X137795000Y-90805000D03*
X137795000Y-88265000D03*
X137795000Y-85725000D03*
X137795000Y-83185000D03*
X137795000Y-80645000D03*
X137795000Y-78105000D03*
X137795000Y-75565000D03*
X130175000Y-75565000D03*
X130175000Y-78105000D03*
X130175000Y-80645000D03*
X130175000Y-83185000D03*
X130175000Y-85725000D03*
X130175000Y-88265000D03*
X130175000Y-90805000D03*
X130175000Y-93345000D03*
X130175000Y-95885000D03*
X130175000Y-98425000D03*
%TD*%
D28*
%TO.C,C19*%
X131445000Y-28956000D03*
D22*
X128945000Y-28956000D03*
%TD*%
D25*
%TO.C,P3*%
X182880000Y-105410000D03*
D26*
X182880000Y-100330000D03*
X185420000Y-105410000D03*
X185420000Y-100330000D03*
X187960000Y-105410000D03*
X187960000Y-100330000D03*
X190500000Y-105410000D03*
X190500000Y-100330000D03*
X193040000Y-105410000D03*
X193040000Y-100330000D03*
X195580000Y-105410000D03*
X195580000Y-100330000D03*
X198120000Y-105410000D03*
X198120000Y-100330000D03*
X200660000Y-105410000D03*
X200660000Y-100330000D03*
X203200000Y-105410000D03*
X203200000Y-100330000D03*
X205740000Y-105410000D03*
X205740000Y-100330000D03*
X208280000Y-105410000D03*
X208280000Y-100330000D03*
X210820000Y-105410000D03*
X210820000Y-100330000D03*
X213360000Y-105410000D03*
X213360000Y-100330000D03*
X215900000Y-105410000D03*
X215900000Y-100330000D03*
X218440000Y-105410000D03*
X218440000Y-100330000D03*
X220980000Y-105410000D03*
X220980000Y-100330000D03*
X223520000Y-105410000D03*
X223520000Y-100330000D03*
X226060000Y-105410000D03*
X226060000Y-100330000D03*
X228600000Y-105410000D03*
X228600000Y-100330000D03*
X231140000Y-105410000D03*
X231140000Y-100330000D03*
%TD*%
D22*
%TO.C,C16*%
X200660000Y-161845000D03*
X200660000Y-156845000D03*
%TD*%
%TO.C,R5*%
X210185000Y-161925000D03*
D23*
X210185000Y-154305000D03*
%TD*%
D28*
%TO.C,U14*%
X196850000Y-154305000D03*
D23*
X194310000Y-154305000D03*
X191770000Y-154305000D03*
X189230000Y-154305000D03*
X186690000Y-154305000D03*
X184150000Y-154305000D03*
X181610000Y-154305000D03*
X181610000Y-161925000D03*
X184150000Y-161925000D03*
X186690000Y-161925000D03*
X189230000Y-161925000D03*
X191770000Y-161925000D03*
X194310000Y-161925000D03*
X196850000Y-161925000D03*
%TD*%
D28*
%TO.C,U12*%
X139700000Y-128905000D03*
D23*
X139700000Y-131445000D03*
X139700000Y-133985000D03*
X139700000Y-136525000D03*
X139700000Y-139065000D03*
X139700000Y-141605000D03*
X139700000Y-144145000D03*
X139700000Y-146685000D03*
X147320000Y-146685000D03*
X147320000Y-144145000D03*
X147320000Y-141605000D03*
X147320000Y-139065000D03*
X147320000Y-136525000D03*
X147320000Y-133985000D03*
X147320000Y-131445000D03*
X147320000Y-128905000D03*
%TD*%
D22*
%TO.C,C9*%
X115530000Y-108585000D03*
X110530000Y-108585000D03*
%TD*%
%TO.C,R1*%
X133985000Y-161925000D03*
D23*
X133985000Y-154305000D03*
%TD*%
D22*
%TO.C,C4*%
X99060000Y-38735000D03*
X94060000Y-38735000D03*
%TD*%
D28*
%TO.C,U13*%
X157470000Y-161915000D03*
D23*
X160010000Y-161915000D03*
X162550000Y-161915000D03*
X165090000Y-161915000D03*
X167630000Y-161915000D03*
X170170000Y-161915000D03*
X172710000Y-161915000D03*
X175250000Y-161915000D03*
X175250000Y-154295000D03*
X172710000Y-154295000D03*
X170170000Y-154295000D03*
X167630000Y-154295000D03*
X165090000Y-154295000D03*
X162550000Y-154295000D03*
X160010000Y-154295000D03*
X157470000Y-154295000D03*
%TD*%
D28*
%TO.C,U2*%
X118110000Y-59055000D03*
D23*
X118110000Y-56515000D03*
X118110000Y-53975000D03*
X118110000Y-51435000D03*
X118110000Y-48895000D03*
X118110000Y-46355000D03*
X118110000Y-43815000D03*
X118110000Y-41275000D03*
X118110000Y-38735000D03*
X118110000Y-36195000D03*
X110490000Y-36195000D03*
X110490000Y-38735000D03*
X110490000Y-41275000D03*
X110490000Y-43815000D03*
X110490000Y-46355000D03*
X110490000Y-48895000D03*
X110490000Y-51435000D03*
X110490000Y-53975000D03*
X110490000Y-56515000D03*
X110490000Y-59055000D03*
%TD*%
D22*
%TO.C,R8*%
X245110000Y-154940000D03*
D23*
X252730000Y-154940000D03*
%TD*%
D22*
%TO.C,C2*%
X85725000Y-52705000D03*
X80725000Y-52705000D03*
%TD*%
D28*
%TO.C,C18*%
X130175000Y-112435000D03*
D22*
X130175000Y-114935000D03*
%TD*%
D28*
%TO.C,U10*%
X107950000Y-112395000D03*
D23*
X107950000Y-114935000D03*
X107950000Y-117475000D03*
X107950000Y-120015000D03*
X107950000Y-122555000D03*
X107950000Y-125095000D03*
X107950000Y-127635000D03*
X115570000Y-127635000D03*
X115570000Y-125095000D03*
X115570000Y-122555000D03*
X115570000Y-120015000D03*
X115570000Y-117475000D03*
X115570000Y-114935000D03*
X115570000Y-112395000D03*
%TD*%
D28*
%TO.C,U3*%
X127000000Y-44450000D03*
D23*
X127000000Y-46990000D03*
X127000000Y-49530000D03*
X127000000Y-52070000D03*
X127000000Y-54610000D03*
X127000000Y-57150000D03*
X127000000Y-59690000D03*
X127000000Y-62230000D03*
X134620000Y-62230000D03*
X134620000Y-59690000D03*
X134620000Y-57150000D03*
X134620000Y-54610000D03*
X134620000Y-52070000D03*
X134620000Y-49530000D03*
X134620000Y-46990000D03*
X134620000Y-44450000D03*
%TD*%
D22*
%TO.C,R2*%
X137795000Y-161925000D03*
D23*
X137795000Y-154305000D03*
%TD*%
D22*
%TO.C,C10*%
X134580000Y-40640000D03*
X129580000Y-40640000D03*
%TD*%
D25*
%TO.C,P2*%
X182880000Y-137160000D03*
D26*
X182880000Y-132080000D03*
X185420000Y-137160000D03*
X185420000Y-132080000D03*
X187960000Y-137160000D03*
X187960000Y-132080000D03*
X190500000Y-137160000D03*
X190500000Y-132080000D03*
X193040000Y-137160000D03*
X193040000Y-132080000D03*
X195580000Y-137160000D03*
X195580000Y-132080000D03*
X198120000Y-137160000D03*
X198120000Y-132080000D03*
X200660000Y-137160000D03*
X200660000Y-132080000D03*
X203200000Y-137160000D03*
X203200000Y-132080000D03*
X205740000Y-137160000D03*
X205740000Y-132080000D03*
X208280000Y-137160000D03*
X208280000Y-132080000D03*
X210820000Y-137160000D03*
X210820000Y-132080000D03*
X213360000Y-137160000D03*
X213360000Y-132080000D03*
X215900000Y-137160000D03*
X215900000Y-132080000D03*
X218440000Y-137160000D03*
X218440000Y-132080000D03*
X220980000Y-137160000D03*
X220980000Y-132080000D03*
X223520000Y-137160000D03*
X223520000Y-132080000D03*
X226060000Y-137160000D03*
X226060000Y-132080000D03*
X228600000Y-137160000D03*
X228600000Y-132080000D03*
X231140000Y-137160000D03*
X231140000Y-132080000D03*
%TD*%
D22*
%TO.C,R4*%
X145415000Y-161925000D03*
D23*
X145415000Y-154305000D03*
%TD*%
D22*
%TO.C,C1*%
X85725000Y-57785000D03*
X80725000Y-57785000D03*
%TD*%
%TO.C,C8*%
X115490000Y-79375000D03*
X110490000Y-79375000D03*
%TD*%
D29*
%TO.C,C20*%
X253365000Y-107035000D03*
X253365000Y-103785000D03*
%TD*%
D30*
%TO.C,JP4*%
X81280000Y-43815000D03*
D31*
X82199238Y-42895762D03*
%TD*%
D32*
%TO.C,JP2*%
X238760000Y-43815000D03*
X238760000Y-45115000D03*
X238760000Y-46415000D03*
%TD*%
D33*
%TO.C,C17*%
X253365000Y-46000000D03*
X253365000Y-49250000D03*
%TD*%
D30*
%TO.C,JP3*%
X84630381Y-37924619D03*
D31*
X85549619Y-37005381D03*
%TD*%
D32*
%TO.C,JP1*%
X238760000Y-107285000D03*
X238760000Y-108585000D03*
X238760000Y-109885000D03*
%TD*%
D29*
%TO.C,C22*%
X253365000Y-43535000D03*
X253365000Y-40285000D03*
%TD*%
D34*
%TO.C,U15*%
X250165000Y-105015000D03*
D35*
X250165000Y-107315000D03*
D36*
X243865000Y-107315000D03*
D34*
X250165000Y-109615000D03*
%TD*%
D33*
%TO.C,C21*%
X253365000Y-109855000D03*
X253365000Y-113105000D03*
%TD*%
D34*
%TO.C,U16*%
X250165000Y-41515000D03*
D35*
X250165000Y-43815000D03*
D36*
X243865000Y-43815000D03*
D34*
X250165000Y-46115000D03*
%TD*%
M02*
