%TF.GenerationSoftware,KiCad,Pcbnew,8.0.2*%
%TF.CreationDate,2024-06-10T22:31:20-05:00*%
%TF.ProjectId,Tandy Color Computer Multi-Pak,54616e64-7920-4436-9f6c-6f7220436f6d,rev?*%
%TF.SameCoordinates,Original*%
%TF.FileFunction,Legend,Bot*%
%TF.FilePolarity,Positive*%
%FSLAX46Y46*%
G04 Gerber Fmt 4.6, Leading zero omitted, Abs format (unit mm)*
G04 Created by KiCad (PCBNEW 8.0.2) date 2024-06-10 22:31:20*
%MOMM*%
%LPD*%
G01*
G04 APERTURE LIST*
%ADD10C,0.100000*%
%ADD11C,0.150000*%
%ADD12C,0.120000*%
G04 APERTURE END LIST*
D10*
X255982115Y-44195466D02*
X255220211Y-44195466D01*
X255601163Y-44576419D02*
X255601163Y-43814514D01*
X239761192Y-61597265D02*
X239808811Y-61740122D01*
X239808811Y-61740122D02*
X239808811Y-61978217D01*
X239808811Y-61978217D02*
X239761192Y-62073455D01*
X239761192Y-62073455D02*
X239713572Y-62121074D01*
X239713572Y-62121074D02*
X239618334Y-62168693D01*
X239618334Y-62168693D02*
X239523096Y-62168693D01*
X239523096Y-62168693D02*
X239427858Y-62121074D01*
X239427858Y-62121074D02*
X239380239Y-62073455D01*
X239380239Y-62073455D02*
X239332620Y-61978217D01*
X239332620Y-61978217D02*
X239285001Y-61787741D01*
X239285001Y-61787741D02*
X239237382Y-61692503D01*
X239237382Y-61692503D02*
X239189763Y-61644884D01*
X239189763Y-61644884D02*
X239094525Y-61597265D01*
X239094525Y-61597265D02*
X238999287Y-61597265D01*
X238999287Y-61597265D02*
X238904049Y-61644884D01*
X238904049Y-61644884D02*
X238856430Y-61692503D01*
X238856430Y-61692503D02*
X238808811Y-61787741D01*
X238808811Y-61787741D02*
X238808811Y-62025836D01*
X238808811Y-62025836D02*
X238856430Y-62168693D01*
X239808811Y-62740122D02*
X239761192Y-62644884D01*
X239761192Y-62644884D02*
X239713572Y-62597265D01*
X239713572Y-62597265D02*
X239618334Y-62549646D01*
X239618334Y-62549646D02*
X239332620Y-62549646D01*
X239332620Y-62549646D02*
X239237382Y-62597265D01*
X239237382Y-62597265D02*
X239189763Y-62644884D01*
X239189763Y-62644884D02*
X239142144Y-62740122D01*
X239142144Y-62740122D02*
X239142144Y-62882979D01*
X239142144Y-62882979D02*
X239189763Y-62978217D01*
X239189763Y-62978217D02*
X239237382Y-63025836D01*
X239237382Y-63025836D02*
X239332620Y-63073455D01*
X239332620Y-63073455D02*
X239618334Y-63073455D01*
X239618334Y-63073455D02*
X239713572Y-63025836D01*
X239713572Y-63025836D02*
X239761192Y-62978217D01*
X239761192Y-62978217D02*
X239808811Y-62882979D01*
X239808811Y-62882979D02*
X239808811Y-62740122D01*
X239808811Y-63644884D02*
X239761192Y-63549646D01*
X239761192Y-63549646D02*
X239665953Y-63502027D01*
X239665953Y-63502027D02*
X238808811Y-63502027D01*
X239808811Y-64454408D02*
X238808811Y-64454408D01*
X239761192Y-64454408D02*
X239808811Y-64359170D01*
X239808811Y-64359170D02*
X239808811Y-64168694D01*
X239808811Y-64168694D02*
X239761192Y-64073456D01*
X239761192Y-64073456D02*
X239713572Y-64025837D01*
X239713572Y-64025837D02*
X239618334Y-63978218D01*
X239618334Y-63978218D02*
X239332620Y-63978218D01*
X239332620Y-63978218D02*
X239237382Y-64025837D01*
X239237382Y-64025837D02*
X239189763Y-64073456D01*
X239189763Y-64073456D02*
X239142144Y-64168694D01*
X239142144Y-64168694D02*
X239142144Y-64359170D01*
X239142144Y-64359170D02*
X239189763Y-64454408D01*
X239761192Y-65311551D02*
X239808811Y-65216313D01*
X239808811Y-65216313D02*
X239808811Y-65025837D01*
X239808811Y-65025837D02*
X239761192Y-64930599D01*
X239761192Y-64930599D02*
X239665953Y-64882980D01*
X239665953Y-64882980D02*
X239285001Y-64882980D01*
X239285001Y-64882980D02*
X239189763Y-64930599D01*
X239189763Y-64930599D02*
X239142144Y-65025837D01*
X239142144Y-65025837D02*
X239142144Y-65216313D01*
X239142144Y-65216313D02*
X239189763Y-65311551D01*
X239189763Y-65311551D02*
X239285001Y-65359170D01*
X239285001Y-65359170D02*
X239380239Y-65359170D01*
X239380239Y-65359170D02*
X239475477Y-64882980D01*
X239808811Y-65787742D02*
X239142144Y-65787742D01*
X239332620Y-65787742D02*
X239237382Y-65835361D01*
X239237382Y-65835361D02*
X239189763Y-65882980D01*
X239189763Y-65882980D02*
X239142144Y-65978218D01*
X239142144Y-65978218D02*
X239142144Y-66073456D01*
X239808811Y-67168695D02*
X238808811Y-67168695D01*
X238808811Y-67168695D02*
X238808811Y-67406790D01*
X238808811Y-67406790D02*
X238856430Y-67549647D01*
X238856430Y-67549647D02*
X238951668Y-67644885D01*
X238951668Y-67644885D02*
X239046906Y-67692504D01*
X239046906Y-67692504D02*
X239237382Y-67740123D01*
X239237382Y-67740123D02*
X239380239Y-67740123D01*
X239380239Y-67740123D02*
X239570715Y-67692504D01*
X239570715Y-67692504D02*
X239665953Y-67644885D01*
X239665953Y-67644885D02*
X239761192Y-67549647D01*
X239761192Y-67549647D02*
X239808811Y-67406790D01*
X239808811Y-67406790D02*
X239808811Y-67168695D01*
X239808811Y-68168695D02*
X238808811Y-68168695D01*
X239808811Y-69216313D02*
X239332620Y-68882980D01*
X239808811Y-68644885D02*
X238808811Y-68644885D01*
X238808811Y-68644885D02*
X238808811Y-69025837D01*
X238808811Y-69025837D02*
X238856430Y-69121075D01*
X238856430Y-69121075D02*
X238904049Y-69168694D01*
X238904049Y-69168694D02*
X238999287Y-69216313D01*
X238999287Y-69216313D02*
X239142144Y-69216313D01*
X239142144Y-69216313D02*
X239237382Y-69168694D01*
X239237382Y-69168694D02*
X239285001Y-69121075D01*
X239285001Y-69121075D02*
X239332620Y-69025837D01*
X239332620Y-69025837D02*
X239332620Y-68644885D01*
X239285001Y-69644885D02*
X239285001Y-69978218D01*
X239808811Y-70121075D02*
X239808811Y-69644885D01*
X239808811Y-69644885D02*
X238808811Y-69644885D01*
X238808811Y-69644885D02*
X238808811Y-70121075D01*
X239713572Y-71121075D02*
X239761192Y-71073456D01*
X239761192Y-71073456D02*
X239808811Y-70930599D01*
X239808811Y-70930599D02*
X239808811Y-70835361D01*
X239808811Y-70835361D02*
X239761192Y-70692504D01*
X239761192Y-70692504D02*
X239665953Y-70597266D01*
X239665953Y-70597266D02*
X239570715Y-70549647D01*
X239570715Y-70549647D02*
X239380239Y-70502028D01*
X239380239Y-70502028D02*
X239237382Y-70502028D01*
X239237382Y-70502028D02*
X239046906Y-70549647D01*
X239046906Y-70549647D02*
X238951668Y-70597266D01*
X238951668Y-70597266D02*
X238856430Y-70692504D01*
X238856430Y-70692504D02*
X238808811Y-70835361D01*
X238808811Y-70835361D02*
X238808811Y-70930599D01*
X238808811Y-70930599D02*
X238856430Y-71073456D01*
X238856430Y-71073456D02*
X238904049Y-71121075D01*
X238808811Y-71406790D02*
X238808811Y-71978218D01*
X239808811Y-71692504D02*
X238808811Y-71692504D01*
X239142144Y-73073457D02*
X239999287Y-73073457D01*
X239999287Y-73073457D02*
X240094525Y-73025838D01*
X240094525Y-73025838D02*
X240142144Y-72930600D01*
X240142144Y-72930600D02*
X240142144Y-72882981D01*
X238808811Y-73073457D02*
X238856430Y-73025838D01*
X238856430Y-73025838D02*
X238904049Y-73073457D01*
X238904049Y-73073457D02*
X238856430Y-73121076D01*
X238856430Y-73121076D02*
X238808811Y-73073457D01*
X238808811Y-73073457D02*
X238904049Y-73073457D01*
X239142144Y-73978218D02*
X239808811Y-73978218D01*
X239142144Y-73549647D02*
X239665953Y-73549647D01*
X239665953Y-73549647D02*
X239761192Y-73597266D01*
X239761192Y-73597266D02*
X239808811Y-73692504D01*
X239808811Y-73692504D02*
X239808811Y-73835361D01*
X239808811Y-73835361D02*
X239761192Y-73930599D01*
X239761192Y-73930599D02*
X239713572Y-73978218D01*
X239808811Y-74454409D02*
X239142144Y-74454409D01*
X239237382Y-74454409D02*
X239189763Y-74502028D01*
X239189763Y-74502028D02*
X239142144Y-74597266D01*
X239142144Y-74597266D02*
X239142144Y-74740123D01*
X239142144Y-74740123D02*
X239189763Y-74835361D01*
X239189763Y-74835361D02*
X239285001Y-74882980D01*
X239285001Y-74882980D02*
X239808811Y-74882980D01*
X239285001Y-74882980D02*
X239189763Y-74930599D01*
X239189763Y-74930599D02*
X239142144Y-75025837D01*
X239142144Y-75025837D02*
X239142144Y-75168694D01*
X239142144Y-75168694D02*
X239189763Y-75263933D01*
X239189763Y-75263933D02*
X239285001Y-75311552D01*
X239285001Y-75311552D02*
X239808811Y-75311552D01*
X239142144Y-75787742D02*
X240142144Y-75787742D01*
X239189763Y-75787742D02*
X239142144Y-75882980D01*
X239142144Y-75882980D02*
X239142144Y-76073456D01*
X239142144Y-76073456D02*
X239189763Y-76168694D01*
X239189763Y-76168694D02*
X239237382Y-76216313D01*
X239237382Y-76216313D02*
X239332620Y-76263932D01*
X239332620Y-76263932D02*
X239618334Y-76263932D01*
X239618334Y-76263932D02*
X239713572Y-76216313D01*
X239713572Y-76216313D02*
X239761192Y-76168694D01*
X239761192Y-76168694D02*
X239808811Y-76073456D01*
X239808811Y-76073456D02*
X239808811Y-75882980D01*
X239808811Y-75882980D02*
X239761192Y-75787742D01*
X239761192Y-77073456D02*
X239808811Y-76978218D01*
X239808811Y-76978218D02*
X239808811Y-76787742D01*
X239808811Y-76787742D02*
X239761192Y-76692504D01*
X239761192Y-76692504D02*
X239665953Y-76644885D01*
X239665953Y-76644885D02*
X239285001Y-76644885D01*
X239285001Y-76644885D02*
X239189763Y-76692504D01*
X239189763Y-76692504D02*
X239142144Y-76787742D01*
X239142144Y-76787742D02*
X239142144Y-76978218D01*
X239142144Y-76978218D02*
X239189763Y-77073456D01*
X239189763Y-77073456D02*
X239285001Y-77121075D01*
X239285001Y-77121075D02*
X239380239Y-77121075D01*
X239380239Y-77121075D02*
X239475477Y-76644885D01*
X239808811Y-77549647D02*
X239142144Y-77549647D01*
X239332620Y-77549647D02*
X239237382Y-77597266D01*
X239237382Y-77597266D02*
X239189763Y-77644885D01*
X239189763Y-77644885D02*
X239142144Y-77740123D01*
X239142144Y-77740123D02*
X239142144Y-77835361D01*
X239761192Y-78121076D02*
X239808811Y-78216314D01*
X239808811Y-78216314D02*
X239808811Y-78406790D01*
X239808811Y-78406790D02*
X239761192Y-78502028D01*
X239761192Y-78502028D02*
X239665953Y-78549647D01*
X239665953Y-78549647D02*
X239618334Y-78549647D01*
X239618334Y-78549647D02*
X239523096Y-78502028D01*
X239523096Y-78502028D02*
X239475477Y-78406790D01*
X239475477Y-78406790D02*
X239475477Y-78263933D01*
X239475477Y-78263933D02*
X239427858Y-78168695D01*
X239427858Y-78168695D02*
X239332620Y-78121076D01*
X239332620Y-78121076D02*
X239285001Y-78121076D01*
X239285001Y-78121076D02*
X239189763Y-78168695D01*
X239189763Y-78168695D02*
X239142144Y-78263933D01*
X239142144Y-78263933D02*
X239142144Y-78406790D01*
X239142144Y-78406790D02*
X239189763Y-78502028D01*
X239142144Y-79597267D02*
X239142144Y-79978219D01*
X238808811Y-79740124D02*
X239665953Y-79740124D01*
X239665953Y-79740124D02*
X239761192Y-79787743D01*
X239761192Y-79787743D02*
X239808811Y-79882981D01*
X239808811Y-79882981D02*
X239808811Y-79978219D01*
X239808811Y-80454410D02*
X239761192Y-80359172D01*
X239761192Y-80359172D02*
X239713572Y-80311553D01*
X239713572Y-80311553D02*
X239618334Y-80263934D01*
X239618334Y-80263934D02*
X239332620Y-80263934D01*
X239332620Y-80263934D02*
X239237382Y-80311553D01*
X239237382Y-80311553D02*
X239189763Y-80359172D01*
X239189763Y-80359172D02*
X239142144Y-80454410D01*
X239142144Y-80454410D02*
X239142144Y-80597267D01*
X239142144Y-80597267D02*
X239189763Y-80692505D01*
X239189763Y-80692505D02*
X239237382Y-80740124D01*
X239237382Y-80740124D02*
X239332620Y-80787743D01*
X239332620Y-80787743D02*
X239618334Y-80787743D01*
X239618334Y-80787743D02*
X239713572Y-80740124D01*
X239713572Y-80740124D02*
X239761192Y-80692505D01*
X239761192Y-80692505D02*
X239808811Y-80597267D01*
X239808811Y-80597267D02*
X239808811Y-80454410D01*
X239808811Y-81978220D02*
X239142144Y-81978220D01*
X239332620Y-81978220D02*
X239237382Y-82025839D01*
X239237382Y-82025839D02*
X239189763Y-82073458D01*
X239189763Y-82073458D02*
X239142144Y-82168696D01*
X239142144Y-82168696D02*
X239142144Y-82263934D01*
X239808811Y-82740125D02*
X239761192Y-82644887D01*
X239761192Y-82644887D02*
X239713572Y-82597268D01*
X239713572Y-82597268D02*
X239618334Y-82549649D01*
X239618334Y-82549649D02*
X239332620Y-82549649D01*
X239332620Y-82549649D02*
X239237382Y-82597268D01*
X239237382Y-82597268D02*
X239189763Y-82644887D01*
X239189763Y-82644887D02*
X239142144Y-82740125D01*
X239142144Y-82740125D02*
X239142144Y-82882982D01*
X239142144Y-82882982D02*
X239189763Y-82978220D01*
X239189763Y-82978220D02*
X239237382Y-83025839D01*
X239237382Y-83025839D02*
X239332620Y-83073458D01*
X239332620Y-83073458D02*
X239618334Y-83073458D01*
X239618334Y-83073458D02*
X239713572Y-83025839D01*
X239713572Y-83025839D02*
X239761192Y-82978220D01*
X239761192Y-82978220D02*
X239808811Y-82882982D01*
X239808811Y-82882982D02*
X239808811Y-82740125D01*
X239142144Y-83930601D02*
X239808811Y-83930601D01*
X239142144Y-83502030D02*
X239665953Y-83502030D01*
X239665953Y-83502030D02*
X239761192Y-83549649D01*
X239761192Y-83549649D02*
X239808811Y-83644887D01*
X239808811Y-83644887D02*
X239808811Y-83787744D01*
X239808811Y-83787744D02*
X239761192Y-83882982D01*
X239761192Y-83882982D02*
X239713572Y-83930601D01*
X239142144Y-84263935D02*
X239142144Y-84644887D01*
X238808811Y-84406792D02*
X239665953Y-84406792D01*
X239665953Y-84406792D02*
X239761192Y-84454411D01*
X239761192Y-84454411D02*
X239808811Y-84549649D01*
X239808811Y-84549649D02*
X239808811Y-84644887D01*
X239761192Y-85359173D02*
X239808811Y-85263935D01*
X239808811Y-85263935D02*
X239808811Y-85073459D01*
X239808811Y-85073459D02*
X239761192Y-84978221D01*
X239761192Y-84978221D02*
X239665953Y-84930602D01*
X239665953Y-84930602D02*
X239285001Y-84930602D01*
X239285001Y-84930602D02*
X239189763Y-84978221D01*
X239189763Y-84978221D02*
X239142144Y-85073459D01*
X239142144Y-85073459D02*
X239142144Y-85263935D01*
X239142144Y-85263935D02*
X239189763Y-85359173D01*
X239189763Y-85359173D02*
X239285001Y-85406792D01*
X239285001Y-85406792D02*
X239380239Y-85406792D01*
X239380239Y-85406792D02*
X239475477Y-84930602D01*
X239427858Y-86597269D02*
X239427858Y-87359174D01*
X239808811Y-86978221D02*
X239046906Y-86978221D01*
X238808811Y-88311554D02*
X238808811Y-87835364D01*
X238808811Y-87835364D02*
X239285001Y-87787745D01*
X239285001Y-87787745D02*
X239237382Y-87835364D01*
X239237382Y-87835364D02*
X239189763Y-87930602D01*
X239189763Y-87930602D02*
X239189763Y-88168697D01*
X239189763Y-88168697D02*
X239237382Y-88263935D01*
X239237382Y-88263935D02*
X239285001Y-88311554D01*
X239285001Y-88311554D02*
X239380239Y-88359173D01*
X239380239Y-88359173D02*
X239618334Y-88359173D01*
X239618334Y-88359173D02*
X239713572Y-88311554D01*
X239713572Y-88311554D02*
X239761192Y-88263935D01*
X239761192Y-88263935D02*
X239808811Y-88168697D01*
X239808811Y-88168697D02*
X239808811Y-87930602D01*
X239808811Y-87930602D02*
X239761192Y-87835364D01*
X239761192Y-87835364D02*
X239713572Y-87787745D01*
X238808811Y-88644888D02*
X239808811Y-88978221D01*
X239808811Y-88978221D02*
X238808811Y-89311554D01*
X239808811Y-89644888D02*
X238808811Y-89644888D01*
X238808811Y-89644888D02*
X238808811Y-89882983D01*
X238808811Y-89882983D02*
X238856430Y-90025840D01*
X238856430Y-90025840D02*
X238951668Y-90121078D01*
X238951668Y-90121078D02*
X239046906Y-90168697D01*
X239046906Y-90168697D02*
X239237382Y-90216316D01*
X239237382Y-90216316D02*
X239380239Y-90216316D01*
X239380239Y-90216316D02*
X239570715Y-90168697D01*
X239570715Y-90168697D02*
X239665953Y-90121078D01*
X239665953Y-90121078D02*
X239761192Y-90025840D01*
X239761192Y-90025840D02*
X239808811Y-89882983D01*
X239808811Y-89882983D02*
X239808811Y-89644888D01*
X239713572Y-91216316D02*
X239761192Y-91168697D01*
X239761192Y-91168697D02*
X239808811Y-91025840D01*
X239808811Y-91025840D02*
X239808811Y-90930602D01*
X239808811Y-90930602D02*
X239761192Y-90787745D01*
X239761192Y-90787745D02*
X239665953Y-90692507D01*
X239665953Y-90692507D02*
X239570715Y-90644888D01*
X239570715Y-90644888D02*
X239380239Y-90597269D01*
X239380239Y-90597269D02*
X239237382Y-90597269D01*
X239237382Y-90597269D02*
X239046906Y-90644888D01*
X239046906Y-90644888D02*
X238951668Y-90692507D01*
X238951668Y-90692507D02*
X238856430Y-90787745D01*
X238856430Y-90787745D02*
X238808811Y-90930602D01*
X238808811Y-90930602D02*
X238808811Y-91025840D01*
X238808811Y-91025840D02*
X238856430Y-91168697D01*
X238856430Y-91168697D02*
X238904049Y-91216316D01*
X241418755Y-62073455D02*
X240418755Y-62073455D01*
X241371136Y-62073455D02*
X241418755Y-61978217D01*
X241418755Y-61978217D02*
X241418755Y-61787741D01*
X241418755Y-61787741D02*
X241371136Y-61692503D01*
X241371136Y-61692503D02*
X241323516Y-61644884D01*
X241323516Y-61644884D02*
X241228278Y-61597265D01*
X241228278Y-61597265D02*
X240942564Y-61597265D01*
X240942564Y-61597265D02*
X240847326Y-61644884D01*
X240847326Y-61644884D02*
X240799707Y-61692503D01*
X240799707Y-61692503D02*
X240752088Y-61787741D01*
X240752088Y-61787741D02*
X240752088Y-61978217D01*
X240752088Y-61978217D02*
X240799707Y-62073455D01*
X241418755Y-62549646D02*
X240752088Y-62549646D01*
X240418755Y-62549646D02*
X240466374Y-62502027D01*
X240466374Y-62502027D02*
X240513993Y-62549646D01*
X240513993Y-62549646D02*
X240466374Y-62597265D01*
X240466374Y-62597265D02*
X240418755Y-62549646D01*
X240418755Y-62549646D02*
X240513993Y-62549646D01*
X241418755Y-63025836D02*
X240752088Y-63025836D01*
X240942564Y-63025836D02*
X240847326Y-63073455D01*
X240847326Y-63073455D02*
X240799707Y-63121074D01*
X240799707Y-63121074D02*
X240752088Y-63216312D01*
X240752088Y-63216312D02*
X240752088Y-63311550D01*
X241371136Y-64025836D02*
X241418755Y-63930598D01*
X241418755Y-63930598D02*
X241418755Y-63740122D01*
X241418755Y-63740122D02*
X241371136Y-63644884D01*
X241371136Y-63644884D02*
X241275897Y-63597265D01*
X241275897Y-63597265D02*
X240894945Y-63597265D01*
X240894945Y-63597265D02*
X240799707Y-63644884D01*
X240799707Y-63644884D02*
X240752088Y-63740122D01*
X240752088Y-63740122D02*
X240752088Y-63930598D01*
X240752088Y-63930598D02*
X240799707Y-64025836D01*
X240799707Y-64025836D02*
X240894945Y-64073455D01*
X240894945Y-64073455D02*
X240990183Y-64073455D01*
X240990183Y-64073455D02*
X241085421Y-63597265D01*
X241371136Y-64930598D02*
X241418755Y-64835360D01*
X241418755Y-64835360D02*
X241418755Y-64644884D01*
X241418755Y-64644884D02*
X241371136Y-64549646D01*
X241371136Y-64549646D02*
X241323516Y-64502027D01*
X241323516Y-64502027D02*
X241228278Y-64454408D01*
X241228278Y-64454408D02*
X240942564Y-64454408D01*
X240942564Y-64454408D02*
X240847326Y-64502027D01*
X240847326Y-64502027D02*
X240799707Y-64549646D01*
X240799707Y-64549646D02*
X240752088Y-64644884D01*
X240752088Y-64644884D02*
X240752088Y-64835360D01*
X240752088Y-64835360D02*
X240799707Y-64930598D01*
X240752088Y-65216313D02*
X240752088Y-65597265D01*
X240418755Y-65359170D02*
X241275897Y-65359170D01*
X241275897Y-65359170D02*
X241371136Y-65406789D01*
X241371136Y-65406789D02*
X241418755Y-65502027D01*
X241418755Y-65502027D02*
X241418755Y-65597265D01*
X241418755Y-66073456D02*
X241371136Y-65978218D01*
X241371136Y-65978218D02*
X241275897Y-65930599D01*
X241275897Y-65930599D02*
X240418755Y-65930599D01*
X240752088Y-66359171D02*
X241418755Y-66597266D01*
X240752088Y-66835361D02*
X241418755Y-66597266D01*
X241418755Y-66597266D02*
X241656850Y-66502028D01*
X241656850Y-66502028D02*
X241704469Y-66454409D01*
X241704469Y-66454409D02*
X241752088Y-66359171D01*
X240752088Y-67835362D02*
X240752088Y-68216314D01*
X241418755Y-67978219D02*
X240561612Y-67978219D01*
X240561612Y-67978219D02*
X240466374Y-68025838D01*
X240466374Y-68025838D02*
X240418755Y-68121076D01*
X240418755Y-68121076D02*
X240418755Y-68216314D01*
X241418755Y-68549648D02*
X240752088Y-68549648D01*
X240942564Y-68549648D02*
X240847326Y-68597267D01*
X240847326Y-68597267D02*
X240799707Y-68644886D01*
X240799707Y-68644886D02*
X240752088Y-68740124D01*
X240752088Y-68740124D02*
X240752088Y-68835362D01*
X241418755Y-69311553D02*
X241371136Y-69216315D01*
X241371136Y-69216315D02*
X241323516Y-69168696D01*
X241323516Y-69168696D02*
X241228278Y-69121077D01*
X241228278Y-69121077D02*
X240942564Y-69121077D01*
X240942564Y-69121077D02*
X240847326Y-69168696D01*
X240847326Y-69168696D02*
X240799707Y-69216315D01*
X240799707Y-69216315D02*
X240752088Y-69311553D01*
X240752088Y-69311553D02*
X240752088Y-69454410D01*
X240752088Y-69454410D02*
X240799707Y-69549648D01*
X240799707Y-69549648D02*
X240847326Y-69597267D01*
X240847326Y-69597267D02*
X240942564Y-69644886D01*
X240942564Y-69644886D02*
X241228278Y-69644886D01*
X241228278Y-69644886D02*
X241323516Y-69597267D01*
X241323516Y-69597267D02*
X241371136Y-69549648D01*
X241371136Y-69549648D02*
X241418755Y-69454410D01*
X241418755Y-69454410D02*
X241418755Y-69311553D01*
X241418755Y-70073458D02*
X240752088Y-70073458D01*
X240847326Y-70073458D02*
X240799707Y-70121077D01*
X240799707Y-70121077D02*
X240752088Y-70216315D01*
X240752088Y-70216315D02*
X240752088Y-70359172D01*
X240752088Y-70359172D02*
X240799707Y-70454410D01*
X240799707Y-70454410D02*
X240894945Y-70502029D01*
X240894945Y-70502029D02*
X241418755Y-70502029D01*
X240894945Y-70502029D02*
X240799707Y-70549648D01*
X240799707Y-70549648D02*
X240752088Y-70644886D01*
X240752088Y-70644886D02*
X240752088Y-70787743D01*
X240752088Y-70787743D02*
X240799707Y-70882982D01*
X240799707Y-70882982D02*
X240894945Y-70930601D01*
X240894945Y-70930601D02*
X241418755Y-70930601D01*
X241418755Y-72168696D02*
X240752088Y-72168696D01*
X240418755Y-72168696D02*
X240466374Y-72121077D01*
X240466374Y-72121077D02*
X240513993Y-72168696D01*
X240513993Y-72168696D02*
X240466374Y-72216315D01*
X240466374Y-72216315D02*
X240418755Y-72168696D01*
X240418755Y-72168696D02*
X240513993Y-72168696D01*
X240752088Y-72644886D02*
X241418755Y-72644886D01*
X240847326Y-72644886D02*
X240799707Y-72692505D01*
X240799707Y-72692505D02*
X240752088Y-72787743D01*
X240752088Y-72787743D02*
X240752088Y-72930600D01*
X240752088Y-72930600D02*
X240799707Y-73025838D01*
X240799707Y-73025838D02*
X240894945Y-73073457D01*
X240894945Y-73073457D02*
X241418755Y-73073457D01*
X240752088Y-73549648D02*
X241752088Y-73549648D01*
X240799707Y-73549648D02*
X240752088Y-73644886D01*
X240752088Y-73644886D02*
X240752088Y-73835362D01*
X240752088Y-73835362D02*
X240799707Y-73930600D01*
X240799707Y-73930600D02*
X240847326Y-73978219D01*
X240847326Y-73978219D02*
X240942564Y-74025838D01*
X240942564Y-74025838D02*
X241228278Y-74025838D01*
X241228278Y-74025838D02*
X241323516Y-73978219D01*
X241323516Y-73978219D02*
X241371136Y-73930600D01*
X241371136Y-73930600D02*
X241418755Y-73835362D01*
X241418755Y-73835362D02*
X241418755Y-73644886D01*
X241418755Y-73644886D02*
X241371136Y-73549648D01*
X240752088Y-74882981D02*
X241418755Y-74882981D01*
X240752088Y-74454410D02*
X241275897Y-74454410D01*
X241275897Y-74454410D02*
X241371136Y-74502029D01*
X241371136Y-74502029D02*
X241418755Y-74597267D01*
X241418755Y-74597267D02*
X241418755Y-74740124D01*
X241418755Y-74740124D02*
X241371136Y-74835362D01*
X241371136Y-74835362D02*
X241323516Y-74882981D01*
X240752088Y-75216315D02*
X240752088Y-75597267D01*
X240418755Y-75359172D02*
X241275897Y-75359172D01*
X241275897Y-75359172D02*
X241371136Y-75406791D01*
X241371136Y-75406791D02*
X241418755Y-75502029D01*
X241418755Y-75502029D02*
X241418755Y-75597267D01*
X240752088Y-76692506D02*
X241609231Y-76692506D01*
X241609231Y-76692506D02*
X241704469Y-76644887D01*
X241704469Y-76644887D02*
X241752088Y-76549649D01*
X241752088Y-76549649D02*
X241752088Y-76502030D01*
X240418755Y-76692506D02*
X240466374Y-76644887D01*
X240466374Y-76644887D02*
X240513993Y-76692506D01*
X240513993Y-76692506D02*
X240466374Y-76740125D01*
X240466374Y-76740125D02*
X240418755Y-76692506D01*
X240418755Y-76692506D02*
X240513993Y-76692506D01*
X241418755Y-77597267D02*
X240894945Y-77597267D01*
X240894945Y-77597267D02*
X240799707Y-77549648D01*
X240799707Y-77549648D02*
X240752088Y-77454410D01*
X240752088Y-77454410D02*
X240752088Y-77263934D01*
X240752088Y-77263934D02*
X240799707Y-77168696D01*
X241371136Y-77597267D02*
X241418755Y-77502029D01*
X241418755Y-77502029D02*
X241418755Y-77263934D01*
X241418755Y-77263934D02*
X241371136Y-77168696D01*
X241371136Y-77168696D02*
X241275897Y-77121077D01*
X241275897Y-77121077D02*
X241180659Y-77121077D01*
X241180659Y-77121077D02*
X241085421Y-77168696D01*
X241085421Y-77168696D02*
X241037802Y-77263934D01*
X241037802Y-77263934D02*
X241037802Y-77502029D01*
X241037802Y-77502029D02*
X240990183Y-77597267D01*
X241371136Y-78502029D02*
X241418755Y-78406791D01*
X241418755Y-78406791D02*
X241418755Y-78216315D01*
X241418755Y-78216315D02*
X241371136Y-78121077D01*
X241371136Y-78121077D02*
X241323516Y-78073458D01*
X241323516Y-78073458D02*
X241228278Y-78025839D01*
X241228278Y-78025839D02*
X240942564Y-78025839D01*
X240942564Y-78025839D02*
X240847326Y-78073458D01*
X240847326Y-78073458D02*
X240799707Y-78121077D01*
X240799707Y-78121077D02*
X240752088Y-78216315D01*
X240752088Y-78216315D02*
X240752088Y-78406791D01*
X240752088Y-78406791D02*
X240799707Y-78502029D01*
X241418755Y-78930601D02*
X240418755Y-78930601D01*
X241037802Y-79025839D02*
X241418755Y-79311553D01*
X240752088Y-79311553D02*
X241133040Y-78930601D01*
X241371136Y-79692506D02*
X241418755Y-79787744D01*
X241418755Y-79787744D02*
X241418755Y-79978220D01*
X241418755Y-79978220D02*
X241371136Y-80073458D01*
X241371136Y-80073458D02*
X241275897Y-80121077D01*
X241275897Y-80121077D02*
X241228278Y-80121077D01*
X241228278Y-80121077D02*
X241133040Y-80073458D01*
X241133040Y-80073458D02*
X241085421Y-79978220D01*
X241085421Y-79978220D02*
X241085421Y-79835363D01*
X241085421Y-79835363D02*
X241037802Y-79740125D01*
X241037802Y-79740125D02*
X240942564Y-79692506D01*
X240942564Y-79692506D02*
X240894945Y-79692506D01*
X240894945Y-79692506D02*
X240799707Y-79740125D01*
X240799707Y-79740125D02*
X240752088Y-79835363D01*
X240752088Y-79835363D02*
X240752088Y-79978220D01*
X240752088Y-79978220D02*
X240799707Y-80073458D01*
X240752088Y-81168697D02*
X240752088Y-81549649D01*
X240418755Y-81311554D02*
X241275897Y-81311554D01*
X241275897Y-81311554D02*
X241371136Y-81359173D01*
X241371136Y-81359173D02*
X241418755Y-81454411D01*
X241418755Y-81454411D02*
X241418755Y-81549649D01*
X241418755Y-82025840D02*
X241371136Y-81930602D01*
X241371136Y-81930602D02*
X241323516Y-81882983D01*
X241323516Y-81882983D02*
X241228278Y-81835364D01*
X241228278Y-81835364D02*
X240942564Y-81835364D01*
X240942564Y-81835364D02*
X240847326Y-81882983D01*
X240847326Y-81882983D02*
X240799707Y-81930602D01*
X240799707Y-81930602D02*
X240752088Y-82025840D01*
X240752088Y-82025840D02*
X240752088Y-82168697D01*
X240752088Y-82168697D02*
X240799707Y-82263935D01*
X240799707Y-82263935D02*
X240847326Y-82311554D01*
X240847326Y-82311554D02*
X240942564Y-82359173D01*
X240942564Y-82359173D02*
X241228278Y-82359173D01*
X241228278Y-82359173D02*
X241323516Y-82311554D01*
X241323516Y-82311554D02*
X241371136Y-82263935D01*
X241371136Y-82263935D02*
X241418755Y-82168697D01*
X241418755Y-82168697D02*
X241418755Y-82025840D01*
X241371136Y-83502031D02*
X241418755Y-83597269D01*
X241418755Y-83597269D02*
X241418755Y-83787745D01*
X241418755Y-83787745D02*
X241371136Y-83882983D01*
X241371136Y-83882983D02*
X241275897Y-83930602D01*
X241275897Y-83930602D02*
X241228278Y-83930602D01*
X241228278Y-83930602D02*
X241133040Y-83882983D01*
X241133040Y-83882983D02*
X241085421Y-83787745D01*
X241085421Y-83787745D02*
X241085421Y-83644888D01*
X241085421Y-83644888D02*
X241037802Y-83549650D01*
X241037802Y-83549650D02*
X240942564Y-83502031D01*
X240942564Y-83502031D02*
X240894945Y-83502031D01*
X240894945Y-83502031D02*
X240799707Y-83549650D01*
X240799707Y-83549650D02*
X240752088Y-83644888D01*
X240752088Y-83644888D02*
X240752088Y-83787745D01*
X240752088Y-83787745D02*
X240799707Y-83882983D01*
X241418755Y-84502031D02*
X241371136Y-84406793D01*
X241371136Y-84406793D02*
X241275897Y-84359174D01*
X241275897Y-84359174D02*
X240418755Y-84359174D01*
X241418755Y-85025841D02*
X241371136Y-84930603D01*
X241371136Y-84930603D02*
X241323516Y-84882984D01*
X241323516Y-84882984D02*
X241228278Y-84835365D01*
X241228278Y-84835365D02*
X240942564Y-84835365D01*
X240942564Y-84835365D02*
X240847326Y-84882984D01*
X240847326Y-84882984D02*
X240799707Y-84930603D01*
X240799707Y-84930603D02*
X240752088Y-85025841D01*
X240752088Y-85025841D02*
X240752088Y-85168698D01*
X240752088Y-85168698D02*
X240799707Y-85263936D01*
X240799707Y-85263936D02*
X240847326Y-85311555D01*
X240847326Y-85311555D02*
X240942564Y-85359174D01*
X240942564Y-85359174D02*
X241228278Y-85359174D01*
X241228278Y-85359174D02*
X241323516Y-85311555D01*
X241323516Y-85311555D02*
X241371136Y-85263936D01*
X241371136Y-85263936D02*
X241418755Y-85168698D01*
X241418755Y-85168698D02*
X241418755Y-85025841D01*
X240752088Y-85644889D02*
X240752088Y-86025841D01*
X240418755Y-85787746D02*
X241275897Y-85787746D01*
X241275897Y-85787746D02*
X241371136Y-85835365D01*
X241371136Y-85835365D02*
X241418755Y-85930603D01*
X241418755Y-85930603D02*
X241418755Y-86025841D01*
X241371136Y-86311556D02*
X241418755Y-86406794D01*
X241418755Y-86406794D02*
X241418755Y-86597270D01*
X241418755Y-86597270D02*
X241371136Y-86692508D01*
X241371136Y-86692508D02*
X241275897Y-86740127D01*
X241275897Y-86740127D02*
X241228278Y-86740127D01*
X241228278Y-86740127D02*
X241133040Y-86692508D01*
X241133040Y-86692508D02*
X241085421Y-86597270D01*
X241085421Y-86597270D02*
X241085421Y-86454413D01*
X241085421Y-86454413D02*
X241037802Y-86359175D01*
X241037802Y-86359175D02*
X240942564Y-86311556D01*
X240942564Y-86311556D02*
X240894945Y-86311556D01*
X240894945Y-86311556D02*
X240799707Y-86359175D01*
X240799707Y-86359175D02*
X240752088Y-86454413D01*
X240752088Y-86454413D02*
X240752088Y-86597270D01*
X240752088Y-86597270D02*
X240799707Y-86692508D01*
X241323516Y-87168699D02*
X241371136Y-87216318D01*
X241371136Y-87216318D02*
X241418755Y-87168699D01*
X241418755Y-87168699D02*
X241371136Y-87121080D01*
X241371136Y-87121080D02*
X241323516Y-87168699D01*
X241323516Y-87168699D02*
X241418755Y-87168699D01*
X243638643Y-61835360D02*
X243638643Y-62025836D01*
X243638643Y-62025836D02*
X243686262Y-62121074D01*
X243686262Y-62121074D02*
X243781500Y-62216312D01*
X243781500Y-62216312D02*
X243971976Y-62263931D01*
X243971976Y-62263931D02*
X244305309Y-62263931D01*
X244305309Y-62263931D02*
X244495785Y-62216312D01*
X244495785Y-62216312D02*
X244591024Y-62121074D01*
X244591024Y-62121074D02*
X244638643Y-62025836D01*
X244638643Y-62025836D02*
X244638643Y-61835360D01*
X244638643Y-61835360D02*
X244591024Y-61740122D01*
X244591024Y-61740122D02*
X244495785Y-61644884D01*
X244495785Y-61644884D02*
X244305309Y-61597265D01*
X244305309Y-61597265D02*
X243971976Y-61597265D01*
X243971976Y-61597265D02*
X243781500Y-61644884D01*
X243781500Y-61644884D02*
X243686262Y-61740122D01*
X243686262Y-61740122D02*
X243638643Y-61835360D01*
X244638643Y-63263931D02*
X244162452Y-62930598D01*
X244638643Y-62692503D02*
X243638643Y-62692503D01*
X243638643Y-62692503D02*
X243638643Y-63073455D01*
X243638643Y-63073455D02*
X243686262Y-63168693D01*
X243686262Y-63168693D02*
X243733881Y-63216312D01*
X243733881Y-63216312D02*
X243829119Y-63263931D01*
X243829119Y-63263931D02*
X243971976Y-63263931D01*
X243971976Y-63263931D02*
X244067214Y-63216312D01*
X244067214Y-63216312D02*
X244114833Y-63168693D01*
X244114833Y-63168693D02*
X244162452Y-63073455D01*
X244162452Y-63073455D02*
X244162452Y-62692503D01*
X247810912Y-61597265D02*
X247858531Y-61740122D01*
X247858531Y-61740122D02*
X247858531Y-61978217D01*
X247858531Y-61978217D02*
X247810912Y-62073455D01*
X247810912Y-62073455D02*
X247763292Y-62121074D01*
X247763292Y-62121074D02*
X247668054Y-62168693D01*
X247668054Y-62168693D02*
X247572816Y-62168693D01*
X247572816Y-62168693D02*
X247477578Y-62121074D01*
X247477578Y-62121074D02*
X247429959Y-62073455D01*
X247429959Y-62073455D02*
X247382340Y-61978217D01*
X247382340Y-61978217D02*
X247334721Y-61787741D01*
X247334721Y-61787741D02*
X247287102Y-61692503D01*
X247287102Y-61692503D02*
X247239483Y-61644884D01*
X247239483Y-61644884D02*
X247144245Y-61597265D01*
X247144245Y-61597265D02*
X247049007Y-61597265D01*
X247049007Y-61597265D02*
X246953769Y-61644884D01*
X246953769Y-61644884D02*
X246906150Y-61692503D01*
X246906150Y-61692503D02*
X246858531Y-61787741D01*
X246858531Y-61787741D02*
X246858531Y-62025836D01*
X246858531Y-62025836D02*
X246906150Y-62168693D01*
X247858531Y-62740122D02*
X247810912Y-62644884D01*
X247810912Y-62644884D02*
X247763292Y-62597265D01*
X247763292Y-62597265D02*
X247668054Y-62549646D01*
X247668054Y-62549646D02*
X247382340Y-62549646D01*
X247382340Y-62549646D02*
X247287102Y-62597265D01*
X247287102Y-62597265D02*
X247239483Y-62644884D01*
X247239483Y-62644884D02*
X247191864Y-62740122D01*
X247191864Y-62740122D02*
X247191864Y-62882979D01*
X247191864Y-62882979D02*
X247239483Y-62978217D01*
X247239483Y-62978217D02*
X247287102Y-63025836D01*
X247287102Y-63025836D02*
X247382340Y-63073455D01*
X247382340Y-63073455D02*
X247668054Y-63073455D01*
X247668054Y-63073455D02*
X247763292Y-63025836D01*
X247763292Y-63025836D02*
X247810912Y-62978217D01*
X247810912Y-62978217D02*
X247858531Y-62882979D01*
X247858531Y-62882979D02*
X247858531Y-62740122D01*
X247858531Y-63644884D02*
X247810912Y-63549646D01*
X247810912Y-63549646D02*
X247715673Y-63502027D01*
X247715673Y-63502027D02*
X246858531Y-63502027D01*
X247858531Y-64454408D02*
X246858531Y-64454408D01*
X247810912Y-64454408D02*
X247858531Y-64359170D01*
X247858531Y-64359170D02*
X247858531Y-64168694D01*
X247858531Y-64168694D02*
X247810912Y-64073456D01*
X247810912Y-64073456D02*
X247763292Y-64025837D01*
X247763292Y-64025837D02*
X247668054Y-63978218D01*
X247668054Y-63978218D02*
X247382340Y-63978218D01*
X247382340Y-63978218D02*
X247287102Y-64025837D01*
X247287102Y-64025837D02*
X247239483Y-64073456D01*
X247239483Y-64073456D02*
X247191864Y-64168694D01*
X247191864Y-64168694D02*
X247191864Y-64359170D01*
X247191864Y-64359170D02*
X247239483Y-64454408D01*
X247810912Y-65311551D02*
X247858531Y-65216313D01*
X247858531Y-65216313D02*
X247858531Y-65025837D01*
X247858531Y-65025837D02*
X247810912Y-64930599D01*
X247810912Y-64930599D02*
X247715673Y-64882980D01*
X247715673Y-64882980D02*
X247334721Y-64882980D01*
X247334721Y-64882980D02*
X247239483Y-64930599D01*
X247239483Y-64930599D02*
X247191864Y-65025837D01*
X247191864Y-65025837D02*
X247191864Y-65216313D01*
X247191864Y-65216313D02*
X247239483Y-65311551D01*
X247239483Y-65311551D02*
X247334721Y-65359170D01*
X247334721Y-65359170D02*
X247429959Y-65359170D01*
X247429959Y-65359170D02*
X247525197Y-64882980D01*
X247858531Y-65787742D02*
X247191864Y-65787742D01*
X247382340Y-65787742D02*
X247287102Y-65835361D01*
X247287102Y-65835361D02*
X247239483Y-65882980D01*
X247239483Y-65882980D02*
X247191864Y-65978218D01*
X247191864Y-65978218D02*
X247191864Y-66073456D01*
X247858531Y-67740123D02*
X247382340Y-67406790D01*
X247858531Y-67168695D02*
X246858531Y-67168695D01*
X246858531Y-67168695D02*
X246858531Y-67549647D01*
X246858531Y-67549647D02*
X246906150Y-67644885D01*
X246906150Y-67644885D02*
X246953769Y-67692504D01*
X246953769Y-67692504D02*
X247049007Y-67740123D01*
X247049007Y-67740123D02*
X247191864Y-67740123D01*
X247191864Y-67740123D02*
X247287102Y-67692504D01*
X247287102Y-67692504D02*
X247334721Y-67644885D01*
X247334721Y-67644885D02*
X247382340Y-67549647D01*
X247382340Y-67549647D02*
X247382340Y-67168695D01*
X247334721Y-68168695D02*
X247334721Y-68502028D01*
X247858531Y-68644885D02*
X247858531Y-68168695D01*
X247858531Y-68168695D02*
X246858531Y-68168695D01*
X246858531Y-68168695D02*
X246858531Y-68644885D01*
X246906150Y-69597266D02*
X246858531Y-69502028D01*
X246858531Y-69502028D02*
X246858531Y-69359171D01*
X246858531Y-69359171D02*
X246906150Y-69216314D01*
X246906150Y-69216314D02*
X247001388Y-69121076D01*
X247001388Y-69121076D02*
X247096626Y-69073457D01*
X247096626Y-69073457D02*
X247287102Y-69025838D01*
X247287102Y-69025838D02*
X247429959Y-69025838D01*
X247429959Y-69025838D02*
X247620435Y-69073457D01*
X247620435Y-69073457D02*
X247715673Y-69121076D01*
X247715673Y-69121076D02*
X247810912Y-69216314D01*
X247810912Y-69216314D02*
X247858531Y-69359171D01*
X247858531Y-69359171D02*
X247858531Y-69454409D01*
X247858531Y-69454409D02*
X247810912Y-69597266D01*
X247810912Y-69597266D02*
X247763292Y-69644885D01*
X247763292Y-69644885D02*
X247429959Y-69644885D01*
X247429959Y-69644885D02*
X247429959Y-69454409D01*
X247191864Y-70835362D02*
X248049007Y-70835362D01*
X248049007Y-70835362D02*
X248144245Y-70787743D01*
X248144245Y-70787743D02*
X248191864Y-70692505D01*
X248191864Y-70692505D02*
X248191864Y-70644886D01*
X246858531Y-70835362D02*
X246906150Y-70787743D01*
X246906150Y-70787743D02*
X246953769Y-70835362D01*
X246953769Y-70835362D02*
X246906150Y-70882981D01*
X246906150Y-70882981D02*
X246858531Y-70835362D01*
X246858531Y-70835362D02*
X246953769Y-70835362D01*
X247191864Y-71740123D02*
X247858531Y-71740123D01*
X247191864Y-71311552D02*
X247715673Y-71311552D01*
X247715673Y-71311552D02*
X247810912Y-71359171D01*
X247810912Y-71359171D02*
X247858531Y-71454409D01*
X247858531Y-71454409D02*
X247858531Y-71597266D01*
X247858531Y-71597266D02*
X247810912Y-71692504D01*
X247810912Y-71692504D02*
X247763292Y-71740123D01*
X247858531Y-72216314D02*
X247191864Y-72216314D01*
X247287102Y-72216314D02*
X247239483Y-72263933D01*
X247239483Y-72263933D02*
X247191864Y-72359171D01*
X247191864Y-72359171D02*
X247191864Y-72502028D01*
X247191864Y-72502028D02*
X247239483Y-72597266D01*
X247239483Y-72597266D02*
X247334721Y-72644885D01*
X247334721Y-72644885D02*
X247858531Y-72644885D01*
X247334721Y-72644885D02*
X247239483Y-72692504D01*
X247239483Y-72692504D02*
X247191864Y-72787742D01*
X247191864Y-72787742D02*
X247191864Y-72930599D01*
X247191864Y-72930599D02*
X247239483Y-73025838D01*
X247239483Y-73025838D02*
X247334721Y-73073457D01*
X247334721Y-73073457D02*
X247858531Y-73073457D01*
X247191864Y-73549647D02*
X248191864Y-73549647D01*
X247239483Y-73549647D02*
X247191864Y-73644885D01*
X247191864Y-73644885D02*
X247191864Y-73835361D01*
X247191864Y-73835361D02*
X247239483Y-73930599D01*
X247239483Y-73930599D02*
X247287102Y-73978218D01*
X247287102Y-73978218D02*
X247382340Y-74025837D01*
X247382340Y-74025837D02*
X247668054Y-74025837D01*
X247668054Y-74025837D02*
X247763292Y-73978218D01*
X247763292Y-73978218D02*
X247810912Y-73930599D01*
X247810912Y-73930599D02*
X247858531Y-73835361D01*
X247858531Y-73835361D02*
X247858531Y-73644885D01*
X247858531Y-73644885D02*
X247810912Y-73549647D01*
X247810912Y-74835361D02*
X247858531Y-74740123D01*
X247858531Y-74740123D02*
X247858531Y-74549647D01*
X247858531Y-74549647D02*
X247810912Y-74454409D01*
X247810912Y-74454409D02*
X247715673Y-74406790D01*
X247715673Y-74406790D02*
X247334721Y-74406790D01*
X247334721Y-74406790D02*
X247239483Y-74454409D01*
X247239483Y-74454409D02*
X247191864Y-74549647D01*
X247191864Y-74549647D02*
X247191864Y-74740123D01*
X247191864Y-74740123D02*
X247239483Y-74835361D01*
X247239483Y-74835361D02*
X247334721Y-74882980D01*
X247334721Y-74882980D02*
X247429959Y-74882980D01*
X247429959Y-74882980D02*
X247525197Y-74406790D01*
X247858531Y-75311552D02*
X247191864Y-75311552D01*
X247382340Y-75311552D02*
X247287102Y-75359171D01*
X247287102Y-75359171D02*
X247239483Y-75406790D01*
X247239483Y-75406790D02*
X247191864Y-75502028D01*
X247191864Y-75502028D02*
X247191864Y-75597266D01*
X247810912Y-75882981D02*
X247858531Y-75978219D01*
X247858531Y-75978219D02*
X247858531Y-76168695D01*
X247858531Y-76168695D02*
X247810912Y-76263933D01*
X247810912Y-76263933D02*
X247715673Y-76311552D01*
X247715673Y-76311552D02*
X247668054Y-76311552D01*
X247668054Y-76311552D02*
X247572816Y-76263933D01*
X247572816Y-76263933D02*
X247525197Y-76168695D01*
X247525197Y-76168695D02*
X247525197Y-76025838D01*
X247525197Y-76025838D02*
X247477578Y-75930600D01*
X247477578Y-75930600D02*
X247382340Y-75882981D01*
X247382340Y-75882981D02*
X247334721Y-75882981D01*
X247334721Y-75882981D02*
X247239483Y-75930600D01*
X247239483Y-75930600D02*
X247191864Y-76025838D01*
X247191864Y-76025838D02*
X247191864Y-76168695D01*
X247191864Y-76168695D02*
X247239483Y-76263933D01*
X247191864Y-77359172D02*
X247191864Y-77740124D01*
X246858531Y-77502029D02*
X247715673Y-77502029D01*
X247715673Y-77502029D02*
X247810912Y-77549648D01*
X247810912Y-77549648D02*
X247858531Y-77644886D01*
X247858531Y-77644886D02*
X247858531Y-77740124D01*
X247858531Y-78216315D02*
X247810912Y-78121077D01*
X247810912Y-78121077D02*
X247763292Y-78073458D01*
X247763292Y-78073458D02*
X247668054Y-78025839D01*
X247668054Y-78025839D02*
X247382340Y-78025839D01*
X247382340Y-78025839D02*
X247287102Y-78073458D01*
X247287102Y-78073458D02*
X247239483Y-78121077D01*
X247239483Y-78121077D02*
X247191864Y-78216315D01*
X247191864Y-78216315D02*
X247191864Y-78359172D01*
X247191864Y-78359172D02*
X247239483Y-78454410D01*
X247239483Y-78454410D02*
X247287102Y-78502029D01*
X247287102Y-78502029D02*
X247382340Y-78549648D01*
X247382340Y-78549648D02*
X247668054Y-78549648D01*
X247668054Y-78549648D02*
X247763292Y-78502029D01*
X247763292Y-78502029D02*
X247810912Y-78454410D01*
X247810912Y-78454410D02*
X247858531Y-78359172D01*
X247858531Y-78359172D02*
X247858531Y-78216315D01*
X247858531Y-79740125D02*
X247191864Y-79740125D01*
X247382340Y-79740125D02*
X247287102Y-79787744D01*
X247287102Y-79787744D02*
X247239483Y-79835363D01*
X247239483Y-79835363D02*
X247191864Y-79930601D01*
X247191864Y-79930601D02*
X247191864Y-80025839D01*
X247858531Y-80502030D02*
X247810912Y-80406792D01*
X247810912Y-80406792D02*
X247763292Y-80359173D01*
X247763292Y-80359173D02*
X247668054Y-80311554D01*
X247668054Y-80311554D02*
X247382340Y-80311554D01*
X247382340Y-80311554D02*
X247287102Y-80359173D01*
X247287102Y-80359173D02*
X247239483Y-80406792D01*
X247239483Y-80406792D02*
X247191864Y-80502030D01*
X247191864Y-80502030D02*
X247191864Y-80644887D01*
X247191864Y-80644887D02*
X247239483Y-80740125D01*
X247239483Y-80740125D02*
X247287102Y-80787744D01*
X247287102Y-80787744D02*
X247382340Y-80835363D01*
X247382340Y-80835363D02*
X247668054Y-80835363D01*
X247668054Y-80835363D02*
X247763292Y-80787744D01*
X247763292Y-80787744D02*
X247810912Y-80740125D01*
X247810912Y-80740125D02*
X247858531Y-80644887D01*
X247858531Y-80644887D02*
X247858531Y-80502030D01*
X247191864Y-81692506D02*
X247858531Y-81692506D01*
X247191864Y-81263935D02*
X247715673Y-81263935D01*
X247715673Y-81263935D02*
X247810912Y-81311554D01*
X247810912Y-81311554D02*
X247858531Y-81406792D01*
X247858531Y-81406792D02*
X247858531Y-81549649D01*
X247858531Y-81549649D02*
X247810912Y-81644887D01*
X247810912Y-81644887D02*
X247763292Y-81692506D01*
X247191864Y-82025840D02*
X247191864Y-82406792D01*
X246858531Y-82168697D02*
X247715673Y-82168697D01*
X247715673Y-82168697D02*
X247810912Y-82216316D01*
X247810912Y-82216316D02*
X247858531Y-82311554D01*
X247858531Y-82311554D02*
X247858531Y-82406792D01*
X247810912Y-83121078D02*
X247858531Y-83025840D01*
X247858531Y-83025840D02*
X247858531Y-82835364D01*
X247858531Y-82835364D02*
X247810912Y-82740126D01*
X247810912Y-82740126D02*
X247715673Y-82692507D01*
X247715673Y-82692507D02*
X247334721Y-82692507D01*
X247334721Y-82692507D02*
X247239483Y-82740126D01*
X247239483Y-82740126D02*
X247191864Y-82835364D01*
X247191864Y-82835364D02*
X247191864Y-83025840D01*
X247191864Y-83025840D02*
X247239483Y-83121078D01*
X247239483Y-83121078D02*
X247334721Y-83168697D01*
X247334721Y-83168697D02*
X247429959Y-83168697D01*
X247429959Y-83168697D02*
X247525197Y-82692507D01*
X247477578Y-84359174D02*
X247477578Y-85121079D01*
X247858531Y-84740126D02*
X247096626Y-84740126D01*
X246858531Y-85502031D02*
X246858531Y-86168697D01*
X246858531Y-86168697D02*
X247858531Y-85740126D01*
X246858531Y-86406793D02*
X247858531Y-86740126D01*
X247858531Y-86740126D02*
X246858531Y-87073459D01*
X247858531Y-87406793D02*
X246858531Y-87406793D01*
X246858531Y-87406793D02*
X246858531Y-87644888D01*
X246858531Y-87644888D02*
X246906150Y-87787745D01*
X246906150Y-87787745D02*
X247001388Y-87882983D01*
X247001388Y-87882983D02*
X247096626Y-87930602D01*
X247096626Y-87930602D02*
X247287102Y-87978221D01*
X247287102Y-87978221D02*
X247429959Y-87978221D01*
X247429959Y-87978221D02*
X247620435Y-87930602D01*
X247620435Y-87930602D02*
X247715673Y-87882983D01*
X247715673Y-87882983D02*
X247810912Y-87787745D01*
X247810912Y-87787745D02*
X247858531Y-87644888D01*
X247858531Y-87644888D02*
X247858531Y-87406793D01*
X247763292Y-88978221D02*
X247810912Y-88930602D01*
X247810912Y-88930602D02*
X247858531Y-88787745D01*
X247858531Y-88787745D02*
X247858531Y-88692507D01*
X247858531Y-88692507D02*
X247810912Y-88549650D01*
X247810912Y-88549650D02*
X247715673Y-88454412D01*
X247715673Y-88454412D02*
X247620435Y-88406793D01*
X247620435Y-88406793D02*
X247429959Y-88359174D01*
X247429959Y-88359174D02*
X247287102Y-88359174D01*
X247287102Y-88359174D02*
X247096626Y-88406793D01*
X247096626Y-88406793D02*
X247001388Y-88454412D01*
X247001388Y-88454412D02*
X246906150Y-88549650D01*
X246906150Y-88549650D02*
X246858531Y-88692507D01*
X246858531Y-88692507D02*
X246858531Y-88787745D01*
X246858531Y-88787745D02*
X246906150Y-88930602D01*
X246906150Y-88930602D02*
X246953769Y-88978221D01*
X248801808Y-61502027D02*
X248801808Y-61882979D01*
X248468475Y-61644884D02*
X249325617Y-61644884D01*
X249325617Y-61644884D02*
X249420856Y-61692503D01*
X249420856Y-61692503D02*
X249468475Y-61787741D01*
X249468475Y-61787741D02*
X249468475Y-61882979D01*
X249468475Y-62359170D02*
X249420856Y-62263932D01*
X249420856Y-62263932D02*
X249373236Y-62216313D01*
X249373236Y-62216313D02*
X249277998Y-62168694D01*
X249277998Y-62168694D02*
X248992284Y-62168694D01*
X248992284Y-62168694D02*
X248897046Y-62216313D01*
X248897046Y-62216313D02*
X248849427Y-62263932D01*
X248849427Y-62263932D02*
X248801808Y-62359170D01*
X248801808Y-62359170D02*
X248801808Y-62502027D01*
X248801808Y-62502027D02*
X248849427Y-62597265D01*
X248849427Y-62597265D02*
X248897046Y-62644884D01*
X248897046Y-62644884D02*
X248992284Y-62692503D01*
X248992284Y-62692503D02*
X249277998Y-62692503D01*
X249277998Y-62692503D02*
X249373236Y-62644884D01*
X249373236Y-62644884D02*
X249420856Y-62597265D01*
X249420856Y-62597265D02*
X249468475Y-62502027D01*
X249468475Y-62502027D02*
X249468475Y-62359170D01*
X249087522Y-63882980D02*
X249087522Y-64644885D01*
X249468475Y-64263932D02*
X248706570Y-64263932D01*
X249468475Y-65168694D02*
X249468475Y-65359170D01*
X249468475Y-65359170D02*
X249420856Y-65454408D01*
X249420856Y-65454408D02*
X249373236Y-65502027D01*
X249373236Y-65502027D02*
X249230379Y-65597265D01*
X249230379Y-65597265D02*
X249039903Y-65644884D01*
X249039903Y-65644884D02*
X248658951Y-65644884D01*
X248658951Y-65644884D02*
X248563713Y-65597265D01*
X248563713Y-65597265D02*
X248516094Y-65549646D01*
X248516094Y-65549646D02*
X248468475Y-65454408D01*
X248468475Y-65454408D02*
X248468475Y-65263932D01*
X248468475Y-65263932D02*
X248516094Y-65168694D01*
X248516094Y-65168694D02*
X248563713Y-65121075D01*
X248563713Y-65121075D02*
X248658951Y-65073456D01*
X248658951Y-65073456D02*
X248897046Y-65073456D01*
X248897046Y-65073456D02*
X248992284Y-65121075D01*
X248992284Y-65121075D02*
X249039903Y-65168694D01*
X249039903Y-65168694D02*
X249087522Y-65263932D01*
X249087522Y-65263932D02*
X249087522Y-65454408D01*
X249087522Y-65454408D02*
X249039903Y-65549646D01*
X249039903Y-65549646D02*
X248992284Y-65597265D01*
X248992284Y-65597265D02*
X248897046Y-65644884D01*
X248468475Y-65930599D02*
X249468475Y-66263932D01*
X249468475Y-66263932D02*
X248468475Y-66597265D01*
X249468475Y-66930599D02*
X248468475Y-66930599D01*
X248468475Y-66930599D02*
X248468475Y-67168694D01*
X248468475Y-67168694D02*
X248516094Y-67311551D01*
X248516094Y-67311551D02*
X248611332Y-67406789D01*
X248611332Y-67406789D02*
X248706570Y-67454408D01*
X248706570Y-67454408D02*
X248897046Y-67502027D01*
X248897046Y-67502027D02*
X249039903Y-67502027D01*
X249039903Y-67502027D02*
X249230379Y-67454408D01*
X249230379Y-67454408D02*
X249325617Y-67406789D01*
X249325617Y-67406789D02*
X249420856Y-67311551D01*
X249420856Y-67311551D02*
X249468475Y-67168694D01*
X249468475Y-67168694D02*
X249468475Y-66930599D01*
X249373236Y-68502027D02*
X249420856Y-68454408D01*
X249420856Y-68454408D02*
X249468475Y-68311551D01*
X249468475Y-68311551D02*
X249468475Y-68216313D01*
X249468475Y-68216313D02*
X249420856Y-68073456D01*
X249420856Y-68073456D02*
X249325617Y-67978218D01*
X249325617Y-67978218D02*
X249230379Y-67930599D01*
X249230379Y-67930599D02*
X249039903Y-67882980D01*
X249039903Y-67882980D02*
X248897046Y-67882980D01*
X248897046Y-67882980D02*
X248706570Y-67930599D01*
X248706570Y-67930599D02*
X248611332Y-67978218D01*
X248611332Y-67978218D02*
X248516094Y-68073456D01*
X248516094Y-68073456D02*
X248468475Y-68216313D01*
X248468475Y-68216313D02*
X248468475Y-68311551D01*
X248468475Y-68311551D02*
X248516094Y-68454408D01*
X248516094Y-68454408D02*
X248563713Y-68502027D01*
X248801808Y-69549647D02*
X248801808Y-69930599D01*
X249468475Y-69692504D02*
X248611332Y-69692504D01*
X248611332Y-69692504D02*
X248516094Y-69740123D01*
X248516094Y-69740123D02*
X248468475Y-69835361D01*
X248468475Y-69835361D02*
X248468475Y-69930599D01*
X249468475Y-70263933D02*
X248801808Y-70263933D01*
X248992284Y-70263933D02*
X248897046Y-70311552D01*
X248897046Y-70311552D02*
X248849427Y-70359171D01*
X248849427Y-70359171D02*
X248801808Y-70454409D01*
X248801808Y-70454409D02*
X248801808Y-70549647D01*
X249468475Y-71025838D02*
X249420856Y-70930600D01*
X249420856Y-70930600D02*
X249373236Y-70882981D01*
X249373236Y-70882981D02*
X249277998Y-70835362D01*
X249277998Y-70835362D02*
X248992284Y-70835362D01*
X248992284Y-70835362D02*
X248897046Y-70882981D01*
X248897046Y-70882981D02*
X248849427Y-70930600D01*
X248849427Y-70930600D02*
X248801808Y-71025838D01*
X248801808Y-71025838D02*
X248801808Y-71168695D01*
X248801808Y-71168695D02*
X248849427Y-71263933D01*
X248849427Y-71263933D02*
X248897046Y-71311552D01*
X248897046Y-71311552D02*
X248992284Y-71359171D01*
X248992284Y-71359171D02*
X249277998Y-71359171D01*
X249277998Y-71359171D02*
X249373236Y-71311552D01*
X249373236Y-71311552D02*
X249420856Y-71263933D01*
X249420856Y-71263933D02*
X249468475Y-71168695D01*
X249468475Y-71168695D02*
X249468475Y-71025838D01*
X249468475Y-71787743D02*
X248801808Y-71787743D01*
X248897046Y-71787743D02*
X248849427Y-71835362D01*
X248849427Y-71835362D02*
X248801808Y-71930600D01*
X248801808Y-71930600D02*
X248801808Y-72073457D01*
X248801808Y-72073457D02*
X248849427Y-72168695D01*
X248849427Y-72168695D02*
X248944665Y-72216314D01*
X248944665Y-72216314D02*
X249468475Y-72216314D01*
X248944665Y-72216314D02*
X248849427Y-72263933D01*
X248849427Y-72263933D02*
X248801808Y-72359171D01*
X248801808Y-72359171D02*
X248801808Y-72502028D01*
X248801808Y-72502028D02*
X248849427Y-72597267D01*
X248849427Y-72597267D02*
X248944665Y-72644886D01*
X248944665Y-72644886D02*
X249468475Y-72644886D01*
X249468475Y-73882981D02*
X248801808Y-73882981D01*
X248468475Y-73882981D02*
X248516094Y-73835362D01*
X248516094Y-73835362D02*
X248563713Y-73882981D01*
X248563713Y-73882981D02*
X248516094Y-73930600D01*
X248516094Y-73930600D02*
X248468475Y-73882981D01*
X248468475Y-73882981D02*
X248563713Y-73882981D01*
X248801808Y-74359171D02*
X249468475Y-74359171D01*
X248897046Y-74359171D02*
X248849427Y-74406790D01*
X248849427Y-74406790D02*
X248801808Y-74502028D01*
X248801808Y-74502028D02*
X248801808Y-74644885D01*
X248801808Y-74644885D02*
X248849427Y-74740123D01*
X248849427Y-74740123D02*
X248944665Y-74787742D01*
X248944665Y-74787742D02*
X249468475Y-74787742D01*
X248801808Y-75263933D02*
X249801808Y-75263933D01*
X248849427Y-75263933D02*
X248801808Y-75359171D01*
X248801808Y-75359171D02*
X248801808Y-75549647D01*
X248801808Y-75549647D02*
X248849427Y-75644885D01*
X248849427Y-75644885D02*
X248897046Y-75692504D01*
X248897046Y-75692504D02*
X248992284Y-75740123D01*
X248992284Y-75740123D02*
X249277998Y-75740123D01*
X249277998Y-75740123D02*
X249373236Y-75692504D01*
X249373236Y-75692504D02*
X249420856Y-75644885D01*
X249420856Y-75644885D02*
X249468475Y-75549647D01*
X249468475Y-75549647D02*
X249468475Y-75359171D01*
X249468475Y-75359171D02*
X249420856Y-75263933D01*
X248801808Y-76597266D02*
X249468475Y-76597266D01*
X248801808Y-76168695D02*
X249325617Y-76168695D01*
X249325617Y-76168695D02*
X249420856Y-76216314D01*
X249420856Y-76216314D02*
X249468475Y-76311552D01*
X249468475Y-76311552D02*
X249468475Y-76454409D01*
X249468475Y-76454409D02*
X249420856Y-76549647D01*
X249420856Y-76549647D02*
X249373236Y-76597266D01*
X248801808Y-76930600D02*
X248801808Y-77311552D01*
X248468475Y-77073457D02*
X249325617Y-77073457D01*
X249325617Y-77073457D02*
X249420856Y-77121076D01*
X249420856Y-77121076D02*
X249468475Y-77216314D01*
X249468475Y-77216314D02*
X249468475Y-77311552D01*
X248801808Y-78406791D02*
X249658951Y-78406791D01*
X249658951Y-78406791D02*
X249754189Y-78359172D01*
X249754189Y-78359172D02*
X249801808Y-78263934D01*
X249801808Y-78263934D02*
X249801808Y-78216315D01*
X248468475Y-78406791D02*
X248516094Y-78359172D01*
X248516094Y-78359172D02*
X248563713Y-78406791D01*
X248563713Y-78406791D02*
X248516094Y-78454410D01*
X248516094Y-78454410D02*
X248468475Y-78406791D01*
X248468475Y-78406791D02*
X248563713Y-78406791D01*
X249468475Y-79311552D02*
X248944665Y-79311552D01*
X248944665Y-79311552D02*
X248849427Y-79263933D01*
X248849427Y-79263933D02*
X248801808Y-79168695D01*
X248801808Y-79168695D02*
X248801808Y-78978219D01*
X248801808Y-78978219D02*
X248849427Y-78882981D01*
X249420856Y-79311552D02*
X249468475Y-79216314D01*
X249468475Y-79216314D02*
X249468475Y-78978219D01*
X249468475Y-78978219D02*
X249420856Y-78882981D01*
X249420856Y-78882981D02*
X249325617Y-78835362D01*
X249325617Y-78835362D02*
X249230379Y-78835362D01*
X249230379Y-78835362D02*
X249135141Y-78882981D01*
X249135141Y-78882981D02*
X249087522Y-78978219D01*
X249087522Y-78978219D02*
X249087522Y-79216314D01*
X249087522Y-79216314D02*
X249039903Y-79311552D01*
X249420856Y-80216314D02*
X249468475Y-80121076D01*
X249468475Y-80121076D02*
X249468475Y-79930600D01*
X249468475Y-79930600D02*
X249420856Y-79835362D01*
X249420856Y-79835362D02*
X249373236Y-79787743D01*
X249373236Y-79787743D02*
X249277998Y-79740124D01*
X249277998Y-79740124D02*
X248992284Y-79740124D01*
X248992284Y-79740124D02*
X248897046Y-79787743D01*
X248897046Y-79787743D02*
X248849427Y-79835362D01*
X248849427Y-79835362D02*
X248801808Y-79930600D01*
X248801808Y-79930600D02*
X248801808Y-80121076D01*
X248801808Y-80121076D02*
X248849427Y-80216314D01*
X249468475Y-80644886D02*
X248468475Y-80644886D01*
X249087522Y-80740124D02*
X249468475Y-81025838D01*
X248801808Y-81025838D02*
X249182760Y-80644886D01*
X248801808Y-82073458D02*
X248801808Y-82454410D01*
X248468475Y-82216315D02*
X249325617Y-82216315D01*
X249325617Y-82216315D02*
X249420856Y-82263934D01*
X249420856Y-82263934D02*
X249468475Y-82359172D01*
X249468475Y-82359172D02*
X249468475Y-82454410D01*
X249468475Y-82930601D02*
X249420856Y-82835363D01*
X249420856Y-82835363D02*
X249373236Y-82787744D01*
X249373236Y-82787744D02*
X249277998Y-82740125D01*
X249277998Y-82740125D02*
X248992284Y-82740125D01*
X248992284Y-82740125D02*
X248897046Y-82787744D01*
X248897046Y-82787744D02*
X248849427Y-82835363D01*
X248849427Y-82835363D02*
X248801808Y-82930601D01*
X248801808Y-82930601D02*
X248801808Y-83073458D01*
X248801808Y-83073458D02*
X248849427Y-83168696D01*
X248849427Y-83168696D02*
X248897046Y-83216315D01*
X248897046Y-83216315D02*
X248992284Y-83263934D01*
X248992284Y-83263934D02*
X249277998Y-83263934D01*
X249277998Y-83263934D02*
X249373236Y-83216315D01*
X249373236Y-83216315D02*
X249420856Y-83168696D01*
X249420856Y-83168696D02*
X249468475Y-83073458D01*
X249468475Y-83073458D02*
X249468475Y-82930601D01*
X248801808Y-84359173D02*
X249468475Y-84597268D01*
X249468475Y-84597268D02*
X248801808Y-84835363D01*
X249468475Y-85359173D02*
X249420856Y-85263935D01*
X249420856Y-85263935D02*
X249373236Y-85216316D01*
X249373236Y-85216316D02*
X249277998Y-85168697D01*
X249277998Y-85168697D02*
X248992284Y-85168697D01*
X248992284Y-85168697D02*
X248897046Y-85216316D01*
X248897046Y-85216316D02*
X248849427Y-85263935D01*
X248849427Y-85263935D02*
X248801808Y-85359173D01*
X248801808Y-85359173D02*
X248801808Y-85502030D01*
X248801808Y-85502030D02*
X248849427Y-85597268D01*
X248849427Y-85597268D02*
X248897046Y-85644887D01*
X248897046Y-85644887D02*
X248992284Y-85692506D01*
X248992284Y-85692506D02*
X249277998Y-85692506D01*
X249277998Y-85692506D02*
X249373236Y-85644887D01*
X249373236Y-85644887D02*
X249420856Y-85597268D01*
X249420856Y-85597268D02*
X249468475Y-85502030D01*
X249468475Y-85502030D02*
X249468475Y-85359173D01*
X249468475Y-86263935D02*
X249420856Y-86168697D01*
X249420856Y-86168697D02*
X249325617Y-86121078D01*
X249325617Y-86121078D02*
X248468475Y-86121078D01*
X248801808Y-86502031D02*
X248801808Y-86882983D01*
X248468475Y-86644888D02*
X249325617Y-86644888D01*
X249325617Y-86644888D02*
X249420856Y-86692507D01*
X249420856Y-86692507D02*
X249468475Y-86787745D01*
X249468475Y-86787745D02*
X249468475Y-86882983D01*
X249468475Y-87644888D02*
X248944665Y-87644888D01*
X248944665Y-87644888D02*
X248849427Y-87597269D01*
X248849427Y-87597269D02*
X248801808Y-87502031D01*
X248801808Y-87502031D02*
X248801808Y-87311555D01*
X248801808Y-87311555D02*
X248849427Y-87216317D01*
X249420856Y-87644888D02*
X249468475Y-87549650D01*
X249468475Y-87549650D02*
X249468475Y-87311555D01*
X249468475Y-87311555D02*
X249420856Y-87216317D01*
X249420856Y-87216317D02*
X249325617Y-87168698D01*
X249325617Y-87168698D02*
X249230379Y-87168698D01*
X249230379Y-87168698D02*
X249135141Y-87216317D01*
X249135141Y-87216317D02*
X249087522Y-87311555D01*
X249087522Y-87311555D02*
X249087522Y-87549650D01*
X249087522Y-87549650D02*
X249039903Y-87644888D01*
X248801808Y-88549650D02*
X249611332Y-88549650D01*
X249611332Y-88549650D02*
X249706570Y-88502031D01*
X249706570Y-88502031D02*
X249754189Y-88454412D01*
X249754189Y-88454412D02*
X249801808Y-88359174D01*
X249801808Y-88359174D02*
X249801808Y-88216317D01*
X249801808Y-88216317D02*
X249754189Y-88121079D01*
X249420856Y-88549650D02*
X249468475Y-88454412D01*
X249468475Y-88454412D02*
X249468475Y-88263936D01*
X249468475Y-88263936D02*
X249420856Y-88168698D01*
X249420856Y-88168698D02*
X249373236Y-88121079D01*
X249373236Y-88121079D02*
X249277998Y-88073460D01*
X249277998Y-88073460D02*
X248992284Y-88073460D01*
X248992284Y-88073460D02*
X248897046Y-88121079D01*
X248897046Y-88121079D02*
X248849427Y-88168698D01*
X248849427Y-88168698D02*
X248801808Y-88263936D01*
X248801808Y-88263936D02*
X248801808Y-88454412D01*
X248801808Y-88454412D02*
X248849427Y-88549650D01*
X249420856Y-89406793D02*
X249468475Y-89311555D01*
X249468475Y-89311555D02*
X249468475Y-89121079D01*
X249468475Y-89121079D02*
X249420856Y-89025841D01*
X249420856Y-89025841D02*
X249325617Y-88978222D01*
X249325617Y-88978222D02*
X248944665Y-88978222D01*
X248944665Y-88978222D02*
X248849427Y-89025841D01*
X248849427Y-89025841D02*
X248801808Y-89121079D01*
X248801808Y-89121079D02*
X248801808Y-89311555D01*
X248801808Y-89311555D02*
X248849427Y-89406793D01*
X248849427Y-89406793D02*
X248944665Y-89454412D01*
X248944665Y-89454412D02*
X249039903Y-89454412D01*
X249039903Y-89454412D02*
X249135141Y-88978222D01*
X251078419Y-61644884D02*
X250411752Y-61644884D01*
X250602228Y-61644884D02*
X250506990Y-61692503D01*
X250506990Y-61692503D02*
X250459371Y-61740122D01*
X250459371Y-61740122D02*
X250411752Y-61835360D01*
X250411752Y-61835360D02*
X250411752Y-61930598D01*
X251030800Y-62644884D02*
X251078419Y-62549646D01*
X251078419Y-62549646D02*
X251078419Y-62359170D01*
X251078419Y-62359170D02*
X251030800Y-62263932D01*
X251030800Y-62263932D02*
X250935561Y-62216313D01*
X250935561Y-62216313D02*
X250554609Y-62216313D01*
X250554609Y-62216313D02*
X250459371Y-62263932D01*
X250459371Y-62263932D02*
X250411752Y-62359170D01*
X250411752Y-62359170D02*
X250411752Y-62549646D01*
X250411752Y-62549646D02*
X250459371Y-62644884D01*
X250459371Y-62644884D02*
X250554609Y-62692503D01*
X250554609Y-62692503D02*
X250649847Y-62692503D01*
X250649847Y-62692503D02*
X250745085Y-62216313D01*
X250411752Y-63549646D02*
X251221276Y-63549646D01*
X251221276Y-63549646D02*
X251316514Y-63502027D01*
X251316514Y-63502027D02*
X251364133Y-63454408D01*
X251364133Y-63454408D02*
X251411752Y-63359170D01*
X251411752Y-63359170D02*
X251411752Y-63216313D01*
X251411752Y-63216313D02*
X251364133Y-63121075D01*
X251030800Y-63549646D02*
X251078419Y-63454408D01*
X251078419Y-63454408D02*
X251078419Y-63263932D01*
X251078419Y-63263932D02*
X251030800Y-63168694D01*
X251030800Y-63168694D02*
X250983180Y-63121075D01*
X250983180Y-63121075D02*
X250887942Y-63073456D01*
X250887942Y-63073456D02*
X250602228Y-63073456D01*
X250602228Y-63073456D02*
X250506990Y-63121075D01*
X250506990Y-63121075D02*
X250459371Y-63168694D01*
X250459371Y-63168694D02*
X250411752Y-63263932D01*
X250411752Y-63263932D02*
X250411752Y-63454408D01*
X250411752Y-63454408D02*
X250459371Y-63549646D01*
X250411752Y-64454408D02*
X251078419Y-64454408D01*
X250411752Y-64025837D02*
X250935561Y-64025837D01*
X250935561Y-64025837D02*
X251030800Y-64073456D01*
X251030800Y-64073456D02*
X251078419Y-64168694D01*
X251078419Y-64168694D02*
X251078419Y-64311551D01*
X251078419Y-64311551D02*
X251030800Y-64406789D01*
X251030800Y-64406789D02*
X250983180Y-64454408D01*
X251078419Y-65073456D02*
X251030800Y-64978218D01*
X251030800Y-64978218D02*
X250935561Y-64930599D01*
X250935561Y-64930599D02*
X250078419Y-64930599D01*
X251078419Y-65882980D02*
X250554609Y-65882980D01*
X250554609Y-65882980D02*
X250459371Y-65835361D01*
X250459371Y-65835361D02*
X250411752Y-65740123D01*
X250411752Y-65740123D02*
X250411752Y-65549647D01*
X250411752Y-65549647D02*
X250459371Y-65454409D01*
X251030800Y-65882980D02*
X251078419Y-65787742D01*
X251078419Y-65787742D02*
X251078419Y-65549647D01*
X251078419Y-65549647D02*
X251030800Y-65454409D01*
X251030800Y-65454409D02*
X250935561Y-65406790D01*
X250935561Y-65406790D02*
X250840323Y-65406790D01*
X250840323Y-65406790D02*
X250745085Y-65454409D01*
X250745085Y-65454409D02*
X250697466Y-65549647D01*
X250697466Y-65549647D02*
X250697466Y-65787742D01*
X250697466Y-65787742D02*
X250649847Y-65882980D01*
X250411752Y-66216314D02*
X250411752Y-66597266D01*
X250078419Y-66359171D02*
X250935561Y-66359171D01*
X250935561Y-66359171D02*
X251030800Y-66406790D01*
X251030800Y-66406790D02*
X251078419Y-66502028D01*
X251078419Y-66502028D02*
X251078419Y-66597266D01*
X251078419Y-67073457D02*
X251030800Y-66978219D01*
X251030800Y-66978219D02*
X250983180Y-66930600D01*
X250983180Y-66930600D02*
X250887942Y-66882981D01*
X250887942Y-66882981D02*
X250602228Y-66882981D01*
X250602228Y-66882981D02*
X250506990Y-66930600D01*
X250506990Y-66930600D02*
X250459371Y-66978219D01*
X250459371Y-66978219D02*
X250411752Y-67073457D01*
X250411752Y-67073457D02*
X250411752Y-67216314D01*
X250411752Y-67216314D02*
X250459371Y-67311552D01*
X250459371Y-67311552D02*
X250506990Y-67359171D01*
X250506990Y-67359171D02*
X250602228Y-67406790D01*
X250602228Y-67406790D02*
X250887942Y-67406790D01*
X250887942Y-67406790D02*
X250983180Y-67359171D01*
X250983180Y-67359171D02*
X251030800Y-67311552D01*
X251030800Y-67311552D02*
X251078419Y-67216314D01*
X251078419Y-67216314D02*
X251078419Y-67073457D01*
X251078419Y-67835362D02*
X250411752Y-67835362D01*
X250602228Y-67835362D02*
X250506990Y-67882981D01*
X250506990Y-67882981D02*
X250459371Y-67930600D01*
X250459371Y-67930600D02*
X250411752Y-68025838D01*
X250411752Y-68025838D02*
X250411752Y-68121076D01*
X251030800Y-68406791D02*
X251078419Y-68502029D01*
X251078419Y-68502029D02*
X251078419Y-68692505D01*
X251078419Y-68692505D02*
X251030800Y-68787743D01*
X251030800Y-68787743D02*
X250935561Y-68835362D01*
X250935561Y-68835362D02*
X250887942Y-68835362D01*
X250887942Y-68835362D02*
X250792704Y-68787743D01*
X250792704Y-68787743D02*
X250745085Y-68692505D01*
X250745085Y-68692505D02*
X250745085Y-68549648D01*
X250745085Y-68549648D02*
X250697466Y-68454410D01*
X250697466Y-68454410D02*
X250602228Y-68406791D01*
X250602228Y-68406791D02*
X250554609Y-68406791D01*
X250554609Y-68406791D02*
X250459371Y-68454410D01*
X250459371Y-68454410D02*
X250411752Y-68549648D01*
X250411752Y-68549648D02*
X250411752Y-68692505D01*
X250411752Y-68692505D02*
X250459371Y-68787743D01*
X251078419Y-70454410D02*
X250554609Y-70454410D01*
X250554609Y-70454410D02*
X250459371Y-70406791D01*
X250459371Y-70406791D02*
X250411752Y-70311553D01*
X250411752Y-70311553D02*
X250411752Y-70121077D01*
X250411752Y-70121077D02*
X250459371Y-70025839D01*
X251030800Y-70454410D02*
X251078419Y-70359172D01*
X251078419Y-70359172D02*
X251078419Y-70121077D01*
X251078419Y-70121077D02*
X251030800Y-70025839D01*
X251030800Y-70025839D02*
X250935561Y-69978220D01*
X250935561Y-69978220D02*
X250840323Y-69978220D01*
X250840323Y-69978220D02*
X250745085Y-70025839D01*
X250745085Y-70025839D02*
X250697466Y-70121077D01*
X250697466Y-70121077D02*
X250697466Y-70359172D01*
X250697466Y-70359172D02*
X250649847Y-70454410D01*
X250411752Y-70930601D02*
X251078419Y-70930601D01*
X250506990Y-70930601D02*
X250459371Y-70978220D01*
X250459371Y-70978220D02*
X250411752Y-71073458D01*
X250411752Y-71073458D02*
X250411752Y-71216315D01*
X250411752Y-71216315D02*
X250459371Y-71311553D01*
X250459371Y-71311553D02*
X250554609Y-71359172D01*
X250554609Y-71359172D02*
X251078419Y-71359172D01*
X251078419Y-72263934D02*
X250078419Y-72263934D01*
X251030800Y-72263934D02*
X251078419Y-72168696D01*
X251078419Y-72168696D02*
X251078419Y-71978220D01*
X251078419Y-71978220D02*
X251030800Y-71882982D01*
X251030800Y-71882982D02*
X250983180Y-71835363D01*
X250983180Y-71835363D02*
X250887942Y-71787744D01*
X250887942Y-71787744D02*
X250602228Y-71787744D01*
X250602228Y-71787744D02*
X250506990Y-71835363D01*
X250506990Y-71835363D02*
X250459371Y-71882982D01*
X250459371Y-71882982D02*
X250411752Y-71978220D01*
X250411752Y-71978220D02*
X250411752Y-72168696D01*
X250411752Y-72168696D02*
X250459371Y-72263934D01*
X250411752Y-73359173D02*
X250411752Y-73740125D01*
X250078419Y-73502030D02*
X250935561Y-73502030D01*
X250935561Y-73502030D02*
X251030800Y-73549649D01*
X251030800Y-73549649D02*
X251078419Y-73644887D01*
X251078419Y-73644887D02*
X251078419Y-73740125D01*
X251078419Y-74073459D02*
X250078419Y-74073459D01*
X251078419Y-74502030D02*
X250554609Y-74502030D01*
X250554609Y-74502030D02*
X250459371Y-74454411D01*
X250459371Y-74454411D02*
X250411752Y-74359173D01*
X250411752Y-74359173D02*
X250411752Y-74216316D01*
X250411752Y-74216316D02*
X250459371Y-74121078D01*
X250459371Y-74121078D02*
X250506990Y-74073459D01*
X251030800Y-75359173D02*
X251078419Y-75263935D01*
X251078419Y-75263935D02*
X251078419Y-75073459D01*
X251078419Y-75073459D02*
X251030800Y-74978221D01*
X251030800Y-74978221D02*
X250935561Y-74930602D01*
X250935561Y-74930602D02*
X250554609Y-74930602D01*
X250554609Y-74930602D02*
X250459371Y-74978221D01*
X250459371Y-74978221D02*
X250411752Y-75073459D01*
X250411752Y-75073459D02*
X250411752Y-75263935D01*
X250411752Y-75263935D02*
X250459371Y-75359173D01*
X250459371Y-75359173D02*
X250554609Y-75406792D01*
X250554609Y-75406792D02*
X250649847Y-75406792D01*
X250649847Y-75406792D02*
X250745085Y-74930602D01*
X250411752Y-75835364D02*
X251078419Y-75835364D01*
X250506990Y-75835364D02*
X250459371Y-75882983D01*
X250459371Y-75882983D02*
X250411752Y-75978221D01*
X250411752Y-75978221D02*
X250411752Y-76121078D01*
X250411752Y-76121078D02*
X250459371Y-76216316D01*
X250459371Y-76216316D02*
X250554609Y-76263935D01*
X250554609Y-76263935D02*
X251078419Y-76263935D01*
X250411752Y-77359174D02*
X250411752Y-77740126D01*
X250078419Y-77502031D02*
X250935561Y-77502031D01*
X250935561Y-77502031D02*
X251030800Y-77549650D01*
X251030800Y-77549650D02*
X251078419Y-77644888D01*
X251078419Y-77644888D02*
X251078419Y-77740126D01*
X251078419Y-78216317D02*
X251030800Y-78121079D01*
X251030800Y-78121079D02*
X250983180Y-78073460D01*
X250983180Y-78073460D02*
X250887942Y-78025841D01*
X250887942Y-78025841D02*
X250602228Y-78025841D01*
X250602228Y-78025841D02*
X250506990Y-78073460D01*
X250506990Y-78073460D02*
X250459371Y-78121079D01*
X250459371Y-78121079D02*
X250411752Y-78216317D01*
X250411752Y-78216317D02*
X250411752Y-78359174D01*
X250411752Y-78359174D02*
X250459371Y-78454412D01*
X250459371Y-78454412D02*
X250506990Y-78502031D01*
X250506990Y-78502031D02*
X250602228Y-78549650D01*
X250602228Y-78549650D02*
X250887942Y-78549650D01*
X250887942Y-78549650D02*
X250983180Y-78502031D01*
X250983180Y-78502031D02*
X251030800Y-78454412D01*
X251030800Y-78454412D02*
X251078419Y-78359174D01*
X251078419Y-78359174D02*
X251078419Y-78216317D01*
X251030800Y-79692508D02*
X251078419Y-79787746D01*
X251078419Y-79787746D02*
X251078419Y-79978222D01*
X251078419Y-79978222D02*
X251030800Y-80073460D01*
X251030800Y-80073460D02*
X250935561Y-80121079D01*
X250935561Y-80121079D02*
X250887942Y-80121079D01*
X250887942Y-80121079D02*
X250792704Y-80073460D01*
X250792704Y-80073460D02*
X250745085Y-79978222D01*
X250745085Y-79978222D02*
X250745085Y-79835365D01*
X250745085Y-79835365D02*
X250697466Y-79740127D01*
X250697466Y-79740127D02*
X250602228Y-79692508D01*
X250602228Y-79692508D02*
X250554609Y-79692508D01*
X250554609Y-79692508D02*
X250459371Y-79740127D01*
X250459371Y-79740127D02*
X250411752Y-79835365D01*
X250411752Y-79835365D02*
X250411752Y-79978222D01*
X250411752Y-79978222D02*
X250459371Y-80073460D01*
X251078419Y-80692508D02*
X251030800Y-80597270D01*
X251030800Y-80597270D02*
X250935561Y-80549651D01*
X250935561Y-80549651D02*
X250078419Y-80549651D01*
X251078419Y-81216318D02*
X251030800Y-81121080D01*
X251030800Y-81121080D02*
X250983180Y-81073461D01*
X250983180Y-81073461D02*
X250887942Y-81025842D01*
X250887942Y-81025842D02*
X250602228Y-81025842D01*
X250602228Y-81025842D02*
X250506990Y-81073461D01*
X250506990Y-81073461D02*
X250459371Y-81121080D01*
X250459371Y-81121080D02*
X250411752Y-81216318D01*
X250411752Y-81216318D02*
X250411752Y-81359175D01*
X250411752Y-81359175D02*
X250459371Y-81454413D01*
X250459371Y-81454413D02*
X250506990Y-81502032D01*
X250506990Y-81502032D02*
X250602228Y-81549651D01*
X250602228Y-81549651D02*
X250887942Y-81549651D01*
X250887942Y-81549651D02*
X250983180Y-81502032D01*
X250983180Y-81502032D02*
X251030800Y-81454413D01*
X251030800Y-81454413D02*
X251078419Y-81359175D01*
X251078419Y-81359175D02*
X251078419Y-81216318D01*
X250411752Y-81835366D02*
X250411752Y-82216318D01*
X250078419Y-81978223D02*
X250935561Y-81978223D01*
X250935561Y-81978223D02*
X251030800Y-82025842D01*
X251030800Y-82025842D02*
X251078419Y-82121080D01*
X251078419Y-82121080D02*
X251078419Y-82216318D01*
X251030800Y-82502033D02*
X251078419Y-82597271D01*
X251078419Y-82597271D02*
X251078419Y-82787747D01*
X251078419Y-82787747D02*
X251030800Y-82882985D01*
X251030800Y-82882985D02*
X250935561Y-82930604D01*
X250935561Y-82930604D02*
X250887942Y-82930604D01*
X250887942Y-82930604D02*
X250792704Y-82882985D01*
X250792704Y-82882985D02*
X250745085Y-82787747D01*
X250745085Y-82787747D02*
X250745085Y-82644890D01*
X250745085Y-82644890D02*
X250697466Y-82549652D01*
X250697466Y-82549652D02*
X250602228Y-82502033D01*
X250602228Y-82502033D02*
X250554609Y-82502033D01*
X250554609Y-82502033D02*
X250459371Y-82549652D01*
X250459371Y-82549652D02*
X250411752Y-82644890D01*
X250411752Y-82644890D02*
X250411752Y-82787747D01*
X250411752Y-82787747D02*
X250459371Y-82882985D01*
X250983180Y-83359176D02*
X251030800Y-83406795D01*
X251030800Y-83406795D02*
X251078419Y-83359176D01*
X251078419Y-83359176D02*
X251030800Y-83311557D01*
X251030800Y-83311557D02*
X250983180Y-83359176D01*
X250983180Y-83359176D02*
X251078419Y-83359176D01*
X255982115Y-45465466D02*
X255220211Y-45465466D01*
X255601163Y-45846419D02*
X255601163Y-45084514D01*
X255982115Y-109346466D02*
X255220211Y-109346466D01*
X255601163Y-109727419D02*
X255601163Y-108965514D01*
X255982115Y-107695466D02*
X255220211Y-107695466D01*
X255601163Y-108076419D02*
X255601163Y-107314514D01*
D11*
X74099057Y-58070713D02*
X74051438Y-58023094D01*
X74051438Y-58023094D02*
X74003819Y-57927856D01*
X74003819Y-57927856D02*
X74003819Y-57689761D01*
X74003819Y-57689761D02*
X74051438Y-57594523D01*
X74051438Y-57594523D02*
X74099057Y-57546904D01*
X74099057Y-57546904D02*
X74194295Y-57499285D01*
X74194295Y-57499285D02*
X74289533Y-57499285D01*
X74289533Y-57499285D02*
X74432390Y-57546904D01*
X74432390Y-57546904D02*
X75003819Y-58118332D01*
X75003819Y-58118332D02*
X75003819Y-57499285D01*
X74337152Y-106330714D02*
X75003819Y-106330714D01*
X73956200Y-106568809D02*
X74670485Y-106806904D01*
X74670485Y-106806904D02*
X74670485Y-106187857D01*
X74003819Y-105616428D02*
X74003819Y-105521190D01*
X74003819Y-105521190D02*
X74051438Y-105425952D01*
X74051438Y-105425952D02*
X74099057Y-105378333D01*
X74099057Y-105378333D02*
X74194295Y-105330714D01*
X74194295Y-105330714D02*
X74384771Y-105283095D01*
X74384771Y-105283095D02*
X74622866Y-105283095D01*
X74622866Y-105283095D02*
X74813342Y-105330714D01*
X74813342Y-105330714D02*
X74908580Y-105378333D01*
X74908580Y-105378333D02*
X74956200Y-105425952D01*
X74956200Y-105425952D02*
X75003819Y-105521190D01*
X75003819Y-105521190D02*
X75003819Y-105616428D01*
X75003819Y-105616428D02*
X74956200Y-105711666D01*
X74956200Y-105711666D02*
X74908580Y-105759285D01*
X74908580Y-105759285D02*
X74813342Y-105806904D01*
X74813342Y-105806904D02*
X74622866Y-105854523D01*
X74622866Y-105854523D02*
X74384771Y-105854523D01*
X74384771Y-105854523D02*
X74194295Y-105806904D01*
X74194295Y-105806904D02*
X74099057Y-105759285D01*
X74099057Y-105759285D02*
X74051438Y-105711666D01*
X74051438Y-105711666D02*
X74003819Y-105616428D01*
X256264580Y-104767142D02*
X256312200Y-104719523D01*
X256312200Y-104719523D02*
X256359819Y-104576666D01*
X256359819Y-104576666D02*
X256359819Y-104481428D01*
X256359819Y-104481428D02*
X256312200Y-104338571D01*
X256312200Y-104338571D02*
X256216961Y-104243333D01*
X256216961Y-104243333D02*
X256121723Y-104195714D01*
X256121723Y-104195714D02*
X255931247Y-104148095D01*
X255931247Y-104148095D02*
X255788390Y-104148095D01*
X255788390Y-104148095D02*
X255597914Y-104195714D01*
X255597914Y-104195714D02*
X255502676Y-104243333D01*
X255502676Y-104243333D02*
X255407438Y-104338571D01*
X255407438Y-104338571D02*
X255359819Y-104481428D01*
X255359819Y-104481428D02*
X255359819Y-104576666D01*
X255359819Y-104576666D02*
X255407438Y-104719523D01*
X255407438Y-104719523D02*
X255455057Y-104767142D01*
X255455057Y-105148095D02*
X255407438Y-105195714D01*
X255407438Y-105195714D02*
X255359819Y-105290952D01*
X255359819Y-105290952D02*
X255359819Y-105529047D01*
X255359819Y-105529047D02*
X255407438Y-105624285D01*
X255407438Y-105624285D02*
X255455057Y-105671904D01*
X255455057Y-105671904D02*
X255550295Y-105719523D01*
X255550295Y-105719523D02*
X255645533Y-105719523D01*
X255645533Y-105719523D02*
X255788390Y-105671904D01*
X255788390Y-105671904D02*
X256359819Y-105100476D01*
X256359819Y-105100476D02*
X256359819Y-105719523D01*
X255359819Y-106338571D02*
X255359819Y-106433809D01*
X255359819Y-106433809D02*
X255407438Y-106529047D01*
X255407438Y-106529047D02*
X255455057Y-106576666D01*
X255455057Y-106576666D02*
X255550295Y-106624285D01*
X255550295Y-106624285D02*
X255740771Y-106671904D01*
X255740771Y-106671904D02*
X255978866Y-106671904D01*
X255978866Y-106671904D02*
X256169342Y-106624285D01*
X256169342Y-106624285D02*
X256264580Y-106576666D01*
X256264580Y-106576666D02*
X256312200Y-106529047D01*
X256312200Y-106529047D02*
X256359819Y-106433809D01*
X256359819Y-106433809D02*
X256359819Y-106338571D01*
X256359819Y-106338571D02*
X256312200Y-106243333D01*
X256312200Y-106243333D02*
X256264580Y-106195714D01*
X256264580Y-106195714D02*
X256169342Y-106148095D01*
X256169342Y-106148095D02*
X255978866Y-106100476D01*
X255978866Y-106100476D02*
X255740771Y-106100476D01*
X255740771Y-106100476D02*
X255550295Y-106148095D01*
X255550295Y-106148095D02*
X255455057Y-106195714D01*
X255455057Y-106195714D02*
X255407438Y-106243333D01*
X255407438Y-106243333D02*
X255359819Y-106338571D01*
X83388754Y-43729243D02*
X83893830Y-44234319D01*
X83893830Y-44234319D02*
X84028517Y-44301662D01*
X84028517Y-44301662D02*
X84163204Y-44301662D01*
X84163204Y-44301662D02*
X84297891Y-44234319D01*
X84297891Y-44234319D02*
X84365235Y-44166975D01*
X83759143Y-44773067D02*
X83052036Y-44065960D01*
X83052036Y-44065960D02*
X82782662Y-44335334D01*
X82782662Y-44335334D02*
X82748991Y-44436350D01*
X82748991Y-44436350D02*
X82748991Y-44503693D01*
X82748991Y-44503693D02*
X82782662Y-44604708D01*
X82782662Y-44604708D02*
X82883678Y-44705724D01*
X82883678Y-44705724D02*
X82984693Y-44739395D01*
X82984693Y-44739395D02*
X83052036Y-44739395D01*
X83052036Y-44739395D02*
X83153052Y-44705724D01*
X83153052Y-44705724D02*
X83422426Y-44436350D01*
X82277586Y-45311815D02*
X82748991Y-45783220D01*
X82176571Y-44874082D02*
X82850006Y-45210800D01*
X82850006Y-45210800D02*
X82412273Y-45648533D01*
X80546086Y-44526376D02*
X80007338Y-45065124D01*
X79569605Y-46041605D02*
X79973666Y-45637544D01*
X79771636Y-45839574D02*
X79064529Y-45132468D01*
X79064529Y-45132468D02*
X79232888Y-45166139D01*
X79232888Y-45166139D02*
X79367575Y-45166139D01*
X79367575Y-45166139D02*
X79468590Y-45132468D01*
X78660468Y-45671216D02*
X78593124Y-45671216D01*
X78593124Y-45671216D02*
X78492109Y-45704887D01*
X78492109Y-45704887D02*
X78323750Y-45873246D01*
X78323750Y-45873246D02*
X78290079Y-45974261D01*
X78290079Y-45974261D02*
X78290079Y-46041605D01*
X78290079Y-46041605D02*
X78323750Y-46142620D01*
X78323750Y-46142620D02*
X78391094Y-46209964D01*
X78391094Y-46209964D02*
X78525781Y-46277307D01*
X78525781Y-46277307D02*
X79333903Y-46277307D01*
X79333903Y-46277307D02*
X78896170Y-46715040D01*
X77987033Y-46209964D02*
X78458437Y-47152773D01*
X78458437Y-47152773D02*
X77515628Y-46681368D01*
X235674819Y-44251666D02*
X236389104Y-44251666D01*
X236389104Y-44251666D02*
X236531961Y-44204047D01*
X236531961Y-44204047D02*
X236627200Y-44108809D01*
X236627200Y-44108809D02*
X236674819Y-43965952D01*
X236674819Y-43965952D02*
X236674819Y-43870714D01*
X236674819Y-44727857D02*
X235674819Y-44727857D01*
X235674819Y-44727857D02*
X235674819Y-45108809D01*
X235674819Y-45108809D02*
X235722438Y-45204047D01*
X235722438Y-45204047D02*
X235770057Y-45251666D01*
X235770057Y-45251666D02*
X235865295Y-45299285D01*
X235865295Y-45299285D02*
X236008152Y-45299285D01*
X236008152Y-45299285D02*
X236103390Y-45251666D01*
X236103390Y-45251666D02*
X236151009Y-45204047D01*
X236151009Y-45204047D02*
X236198628Y-45108809D01*
X236198628Y-45108809D02*
X236198628Y-44727857D01*
X235770057Y-45680238D02*
X235722438Y-45727857D01*
X235722438Y-45727857D02*
X235674819Y-45823095D01*
X235674819Y-45823095D02*
X235674819Y-46061190D01*
X235674819Y-46061190D02*
X235722438Y-46156428D01*
X235722438Y-46156428D02*
X235770057Y-46204047D01*
X235770057Y-46204047D02*
X235865295Y-46251666D01*
X235865295Y-46251666D02*
X235960533Y-46251666D01*
X235960533Y-46251666D02*
X236103390Y-46204047D01*
X236103390Y-46204047D02*
X236674819Y-45632619D01*
X236674819Y-45632619D02*
X236674819Y-46251666D01*
X239214819Y-47577667D02*
X238214819Y-47577667D01*
X238214819Y-47577667D02*
X238214819Y-47815762D01*
X238214819Y-47815762D02*
X238262438Y-47958619D01*
X238262438Y-47958619D02*
X238357676Y-48053857D01*
X238357676Y-48053857D02*
X238452914Y-48101476D01*
X238452914Y-48101476D02*
X238643390Y-48149095D01*
X238643390Y-48149095D02*
X238786247Y-48149095D01*
X238786247Y-48149095D02*
X238976723Y-48101476D01*
X238976723Y-48101476D02*
X239071961Y-48053857D01*
X239071961Y-48053857D02*
X239167200Y-47958619D01*
X239167200Y-47958619D02*
X239214819Y-47815762D01*
X239214819Y-47815762D02*
X239214819Y-47577667D01*
X239214819Y-48577667D02*
X238214819Y-48577667D01*
X239214819Y-49625285D02*
X238738628Y-49291952D01*
X239214819Y-49053857D02*
X238214819Y-49053857D01*
X238214819Y-49053857D02*
X238214819Y-49434809D01*
X238214819Y-49434809D02*
X238262438Y-49530047D01*
X238262438Y-49530047D02*
X238310057Y-49577666D01*
X238310057Y-49577666D02*
X238405295Y-49625285D01*
X238405295Y-49625285D02*
X238548152Y-49625285D01*
X238548152Y-49625285D02*
X238643390Y-49577666D01*
X238643390Y-49577666D02*
X238691009Y-49530047D01*
X238691009Y-49530047D02*
X238738628Y-49434809D01*
X238738628Y-49434809D02*
X238738628Y-49053857D01*
X238691009Y-50053857D02*
X238691009Y-50387190D01*
X239214819Y-50530047D02*
X239214819Y-50053857D01*
X239214819Y-50053857D02*
X238214819Y-50053857D01*
X238214819Y-50053857D02*
X238214819Y-50530047D01*
X239119580Y-51530047D02*
X239167200Y-51482428D01*
X239167200Y-51482428D02*
X239214819Y-51339571D01*
X239214819Y-51339571D02*
X239214819Y-51244333D01*
X239214819Y-51244333D02*
X239167200Y-51101476D01*
X239167200Y-51101476D02*
X239071961Y-51006238D01*
X239071961Y-51006238D02*
X238976723Y-50958619D01*
X238976723Y-50958619D02*
X238786247Y-50911000D01*
X238786247Y-50911000D02*
X238643390Y-50911000D01*
X238643390Y-50911000D02*
X238452914Y-50958619D01*
X238452914Y-50958619D02*
X238357676Y-51006238D01*
X238357676Y-51006238D02*
X238262438Y-51101476D01*
X238262438Y-51101476D02*
X238214819Y-51244333D01*
X238214819Y-51244333D02*
X238214819Y-51339571D01*
X238214819Y-51339571D02*
X238262438Y-51482428D01*
X238262438Y-51482428D02*
X238310057Y-51530047D01*
X238214819Y-51815762D02*
X238214819Y-52387190D01*
X239214819Y-52101476D02*
X238214819Y-52101476D01*
X239214819Y-40632142D02*
X238738628Y-40298809D01*
X239214819Y-40060714D02*
X238214819Y-40060714D01*
X238214819Y-40060714D02*
X238214819Y-40441666D01*
X238214819Y-40441666D02*
X238262438Y-40536904D01*
X238262438Y-40536904D02*
X238310057Y-40584523D01*
X238310057Y-40584523D02*
X238405295Y-40632142D01*
X238405295Y-40632142D02*
X238548152Y-40632142D01*
X238548152Y-40632142D02*
X238643390Y-40584523D01*
X238643390Y-40584523D02*
X238691009Y-40536904D01*
X238691009Y-40536904D02*
X238738628Y-40441666D01*
X238738628Y-40441666D02*
X238738628Y-40060714D01*
X238691009Y-41060714D02*
X238691009Y-41394047D01*
X239214819Y-41536904D02*
X239214819Y-41060714D01*
X239214819Y-41060714D02*
X238214819Y-41060714D01*
X238214819Y-41060714D02*
X238214819Y-41536904D01*
X238262438Y-42489285D02*
X238214819Y-42394047D01*
X238214819Y-42394047D02*
X238214819Y-42251190D01*
X238214819Y-42251190D02*
X238262438Y-42108333D01*
X238262438Y-42108333D02*
X238357676Y-42013095D01*
X238357676Y-42013095D02*
X238452914Y-41965476D01*
X238452914Y-41965476D02*
X238643390Y-41917857D01*
X238643390Y-41917857D02*
X238786247Y-41917857D01*
X238786247Y-41917857D02*
X238976723Y-41965476D01*
X238976723Y-41965476D02*
X239071961Y-42013095D01*
X239071961Y-42013095D02*
X239167200Y-42108333D01*
X239167200Y-42108333D02*
X239214819Y-42251190D01*
X239214819Y-42251190D02*
X239214819Y-42346428D01*
X239214819Y-42346428D02*
X239167200Y-42489285D01*
X239167200Y-42489285D02*
X239119580Y-42536904D01*
X239119580Y-42536904D02*
X238786247Y-42536904D01*
X238786247Y-42536904D02*
X238786247Y-42346428D01*
X256264580Y-46982142D02*
X256312200Y-46934523D01*
X256312200Y-46934523D02*
X256359819Y-46791666D01*
X256359819Y-46791666D02*
X256359819Y-46696428D01*
X256359819Y-46696428D02*
X256312200Y-46553571D01*
X256312200Y-46553571D02*
X256216961Y-46458333D01*
X256216961Y-46458333D02*
X256121723Y-46410714D01*
X256121723Y-46410714D02*
X255931247Y-46363095D01*
X255931247Y-46363095D02*
X255788390Y-46363095D01*
X255788390Y-46363095D02*
X255597914Y-46410714D01*
X255597914Y-46410714D02*
X255502676Y-46458333D01*
X255502676Y-46458333D02*
X255407438Y-46553571D01*
X255407438Y-46553571D02*
X255359819Y-46696428D01*
X255359819Y-46696428D02*
X255359819Y-46791666D01*
X255359819Y-46791666D02*
X255407438Y-46934523D01*
X255407438Y-46934523D02*
X255455057Y-46982142D01*
X256359819Y-47934523D02*
X256359819Y-47363095D01*
X256359819Y-47648809D02*
X255359819Y-47648809D01*
X255359819Y-47648809D02*
X255502676Y-47553571D01*
X255502676Y-47553571D02*
X255597914Y-47458333D01*
X255597914Y-47458333D02*
X255645533Y-47363095D01*
X255359819Y-48267857D02*
X255359819Y-48934523D01*
X255359819Y-48934523D02*
X256359819Y-48505952D01*
X84023754Y-35093243D02*
X84528830Y-35598319D01*
X84528830Y-35598319D02*
X84663517Y-35665662D01*
X84663517Y-35665662D02*
X84798204Y-35665662D01*
X84798204Y-35665662D02*
X84932891Y-35598319D01*
X84932891Y-35598319D02*
X85000235Y-35530975D01*
X84394143Y-36137067D02*
X83687036Y-35429960D01*
X83687036Y-35429960D02*
X83417662Y-35699334D01*
X83417662Y-35699334D02*
X83383991Y-35800350D01*
X83383991Y-35800350D02*
X83383991Y-35867693D01*
X83383991Y-35867693D02*
X83417662Y-35968708D01*
X83417662Y-35968708D02*
X83518678Y-36069724D01*
X83518678Y-36069724D02*
X83619693Y-36103395D01*
X83619693Y-36103395D02*
X83687036Y-36103395D01*
X83687036Y-36103395D02*
X83788052Y-36069724D01*
X83788052Y-36069724D02*
X84057426Y-35800350D01*
X83047273Y-36069724D02*
X82609540Y-36507456D01*
X82609540Y-36507456D02*
X83114617Y-36541128D01*
X83114617Y-36541128D02*
X83013601Y-36642143D01*
X83013601Y-36642143D02*
X82979930Y-36743159D01*
X82979930Y-36743159D02*
X82979930Y-36810502D01*
X82979930Y-36810502D02*
X83013601Y-36911517D01*
X83013601Y-36911517D02*
X83181960Y-37079876D01*
X83181960Y-37079876D02*
X83282975Y-37113548D01*
X83282975Y-37113548D02*
X83350319Y-37113548D01*
X83350319Y-37113548D02*
X83451334Y-37079876D01*
X83451334Y-37079876D02*
X83653365Y-36877846D01*
X83653365Y-36877846D02*
X83687036Y-36776830D01*
X83687036Y-36776830D02*
X83687036Y-36709487D01*
X83848086Y-38684376D02*
X83309338Y-39223124D01*
X83848086Y-39223124D02*
X83309338Y-38684376D01*
X82871605Y-40199605D02*
X83275666Y-39795544D01*
X83073636Y-39997574D02*
X82366529Y-39290468D01*
X82366529Y-39290468D02*
X82534888Y-39324139D01*
X82534888Y-39324139D02*
X82669575Y-39324139D01*
X82669575Y-39324139D02*
X82770590Y-39290468D01*
X81962468Y-39829216D02*
X81895124Y-39829216D01*
X81895124Y-39829216D02*
X81794109Y-39862887D01*
X81794109Y-39862887D02*
X81625750Y-40031246D01*
X81625750Y-40031246D02*
X81592079Y-40132261D01*
X81592079Y-40132261D02*
X81592079Y-40199605D01*
X81592079Y-40199605D02*
X81625750Y-40300620D01*
X81625750Y-40300620D02*
X81693094Y-40367964D01*
X81693094Y-40367964D02*
X81827781Y-40435307D01*
X81827781Y-40435307D02*
X82635903Y-40435307D01*
X82635903Y-40435307D02*
X82198170Y-40873040D01*
X81289033Y-40367964D02*
X81760437Y-41310773D01*
X81760437Y-41310773D02*
X80817628Y-40839368D01*
X235674819Y-107751666D02*
X236389104Y-107751666D01*
X236389104Y-107751666D02*
X236531961Y-107704047D01*
X236531961Y-107704047D02*
X236627200Y-107608809D01*
X236627200Y-107608809D02*
X236674819Y-107465952D01*
X236674819Y-107465952D02*
X236674819Y-107370714D01*
X236674819Y-108227857D02*
X235674819Y-108227857D01*
X235674819Y-108227857D02*
X235674819Y-108608809D01*
X235674819Y-108608809D02*
X235722438Y-108704047D01*
X235722438Y-108704047D02*
X235770057Y-108751666D01*
X235770057Y-108751666D02*
X235865295Y-108799285D01*
X235865295Y-108799285D02*
X236008152Y-108799285D01*
X236008152Y-108799285D02*
X236103390Y-108751666D01*
X236103390Y-108751666D02*
X236151009Y-108704047D01*
X236151009Y-108704047D02*
X236198628Y-108608809D01*
X236198628Y-108608809D02*
X236198628Y-108227857D01*
X236674819Y-109751666D02*
X236674819Y-109180238D01*
X236674819Y-109465952D02*
X235674819Y-109465952D01*
X235674819Y-109465952D02*
X235817676Y-109370714D01*
X235817676Y-109370714D02*
X235912914Y-109275476D01*
X235912914Y-109275476D02*
X235960533Y-109180238D01*
X239214819Y-111204667D02*
X238214819Y-111204667D01*
X238214819Y-111204667D02*
X238214819Y-111442762D01*
X238214819Y-111442762D02*
X238262438Y-111585619D01*
X238262438Y-111585619D02*
X238357676Y-111680857D01*
X238357676Y-111680857D02*
X238452914Y-111728476D01*
X238452914Y-111728476D02*
X238643390Y-111776095D01*
X238643390Y-111776095D02*
X238786247Y-111776095D01*
X238786247Y-111776095D02*
X238976723Y-111728476D01*
X238976723Y-111728476D02*
X239071961Y-111680857D01*
X239071961Y-111680857D02*
X239167200Y-111585619D01*
X239167200Y-111585619D02*
X239214819Y-111442762D01*
X239214819Y-111442762D02*
X239214819Y-111204667D01*
X239214819Y-112204667D02*
X238214819Y-112204667D01*
X239214819Y-113252285D02*
X238738628Y-112918952D01*
X239214819Y-112680857D02*
X238214819Y-112680857D01*
X238214819Y-112680857D02*
X238214819Y-113061809D01*
X238214819Y-113061809D02*
X238262438Y-113157047D01*
X238262438Y-113157047D02*
X238310057Y-113204666D01*
X238310057Y-113204666D02*
X238405295Y-113252285D01*
X238405295Y-113252285D02*
X238548152Y-113252285D01*
X238548152Y-113252285D02*
X238643390Y-113204666D01*
X238643390Y-113204666D02*
X238691009Y-113157047D01*
X238691009Y-113157047D02*
X238738628Y-113061809D01*
X238738628Y-113061809D02*
X238738628Y-112680857D01*
X238691009Y-113680857D02*
X238691009Y-114014190D01*
X239214819Y-114157047D02*
X239214819Y-113680857D01*
X239214819Y-113680857D02*
X238214819Y-113680857D01*
X238214819Y-113680857D02*
X238214819Y-114157047D01*
X239119580Y-115157047D02*
X239167200Y-115109428D01*
X239167200Y-115109428D02*
X239214819Y-114966571D01*
X239214819Y-114966571D02*
X239214819Y-114871333D01*
X239214819Y-114871333D02*
X239167200Y-114728476D01*
X239167200Y-114728476D02*
X239071961Y-114633238D01*
X239071961Y-114633238D02*
X238976723Y-114585619D01*
X238976723Y-114585619D02*
X238786247Y-114538000D01*
X238786247Y-114538000D02*
X238643390Y-114538000D01*
X238643390Y-114538000D02*
X238452914Y-114585619D01*
X238452914Y-114585619D02*
X238357676Y-114633238D01*
X238357676Y-114633238D02*
X238262438Y-114728476D01*
X238262438Y-114728476D02*
X238214819Y-114871333D01*
X238214819Y-114871333D02*
X238214819Y-114966571D01*
X238214819Y-114966571D02*
X238262438Y-115109428D01*
X238262438Y-115109428D02*
X238310057Y-115157047D01*
X238214819Y-115442762D02*
X238214819Y-116014190D01*
X239214819Y-115728476D02*
X238214819Y-115728476D01*
X239214819Y-104132142D02*
X238738628Y-103798809D01*
X239214819Y-103560714D02*
X238214819Y-103560714D01*
X238214819Y-103560714D02*
X238214819Y-103941666D01*
X238214819Y-103941666D02*
X238262438Y-104036904D01*
X238262438Y-104036904D02*
X238310057Y-104084523D01*
X238310057Y-104084523D02*
X238405295Y-104132142D01*
X238405295Y-104132142D02*
X238548152Y-104132142D01*
X238548152Y-104132142D02*
X238643390Y-104084523D01*
X238643390Y-104084523D02*
X238691009Y-104036904D01*
X238691009Y-104036904D02*
X238738628Y-103941666D01*
X238738628Y-103941666D02*
X238738628Y-103560714D01*
X238691009Y-104560714D02*
X238691009Y-104894047D01*
X239214819Y-105036904D02*
X239214819Y-104560714D01*
X239214819Y-104560714D02*
X238214819Y-104560714D01*
X238214819Y-104560714D02*
X238214819Y-105036904D01*
X238262438Y-105989285D02*
X238214819Y-105894047D01*
X238214819Y-105894047D02*
X238214819Y-105751190D01*
X238214819Y-105751190D02*
X238262438Y-105608333D01*
X238262438Y-105608333D02*
X238357676Y-105513095D01*
X238357676Y-105513095D02*
X238452914Y-105465476D01*
X238452914Y-105465476D02*
X238643390Y-105417857D01*
X238643390Y-105417857D02*
X238786247Y-105417857D01*
X238786247Y-105417857D02*
X238976723Y-105465476D01*
X238976723Y-105465476D02*
X239071961Y-105513095D01*
X239071961Y-105513095D02*
X239167200Y-105608333D01*
X239167200Y-105608333D02*
X239214819Y-105751190D01*
X239214819Y-105751190D02*
X239214819Y-105846428D01*
X239214819Y-105846428D02*
X239167200Y-105989285D01*
X239167200Y-105989285D02*
X239119580Y-106036904D01*
X239119580Y-106036904D02*
X238786247Y-106036904D01*
X238786247Y-106036904D02*
X238786247Y-105846428D01*
X256264580Y-41267142D02*
X256312200Y-41219523D01*
X256312200Y-41219523D02*
X256359819Y-41076666D01*
X256359819Y-41076666D02*
X256359819Y-40981428D01*
X256359819Y-40981428D02*
X256312200Y-40838571D01*
X256312200Y-40838571D02*
X256216961Y-40743333D01*
X256216961Y-40743333D02*
X256121723Y-40695714D01*
X256121723Y-40695714D02*
X255931247Y-40648095D01*
X255931247Y-40648095D02*
X255788390Y-40648095D01*
X255788390Y-40648095D02*
X255597914Y-40695714D01*
X255597914Y-40695714D02*
X255502676Y-40743333D01*
X255502676Y-40743333D02*
X255407438Y-40838571D01*
X255407438Y-40838571D02*
X255359819Y-40981428D01*
X255359819Y-40981428D02*
X255359819Y-41076666D01*
X255359819Y-41076666D02*
X255407438Y-41219523D01*
X255407438Y-41219523D02*
X255455057Y-41267142D01*
X255455057Y-41648095D02*
X255407438Y-41695714D01*
X255407438Y-41695714D02*
X255359819Y-41790952D01*
X255359819Y-41790952D02*
X255359819Y-42029047D01*
X255359819Y-42029047D02*
X255407438Y-42124285D01*
X255407438Y-42124285D02*
X255455057Y-42171904D01*
X255455057Y-42171904D02*
X255550295Y-42219523D01*
X255550295Y-42219523D02*
X255645533Y-42219523D01*
X255645533Y-42219523D02*
X255788390Y-42171904D01*
X255788390Y-42171904D02*
X256359819Y-41600476D01*
X256359819Y-41600476D02*
X256359819Y-42219523D01*
X255455057Y-42600476D02*
X255407438Y-42648095D01*
X255407438Y-42648095D02*
X255359819Y-42743333D01*
X255359819Y-42743333D02*
X255359819Y-42981428D01*
X255359819Y-42981428D02*
X255407438Y-43076666D01*
X255407438Y-43076666D02*
X255455057Y-43124285D01*
X255455057Y-43124285D02*
X255550295Y-43171904D01*
X255550295Y-43171904D02*
X255645533Y-43171904D01*
X255645533Y-43171904D02*
X255788390Y-43124285D01*
X255788390Y-43124285D02*
X256359819Y-42552857D01*
X256359819Y-42552857D02*
X256359819Y-43171904D01*
X248253094Y-101054819D02*
X248253094Y-101864342D01*
X248253094Y-101864342D02*
X248205475Y-101959580D01*
X248205475Y-101959580D02*
X248157856Y-102007200D01*
X248157856Y-102007200D02*
X248062618Y-102054819D01*
X248062618Y-102054819D02*
X247872142Y-102054819D01*
X247872142Y-102054819D02*
X247776904Y-102007200D01*
X247776904Y-102007200D02*
X247729285Y-101959580D01*
X247729285Y-101959580D02*
X247681666Y-101864342D01*
X247681666Y-101864342D02*
X247681666Y-101054819D01*
X246681666Y-102054819D02*
X247253094Y-102054819D01*
X246967380Y-102054819D02*
X246967380Y-101054819D01*
X246967380Y-101054819D02*
X247062618Y-101197676D01*
X247062618Y-101197676D02*
X247157856Y-101292914D01*
X247157856Y-101292914D02*
X247253094Y-101340533D01*
X245776904Y-101054819D02*
X246253094Y-101054819D01*
X246253094Y-101054819D02*
X246300713Y-101531009D01*
X246300713Y-101531009D02*
X246253094Y-101483390D01*
X246253094Y-101483390D02*
X246157856Y-101435771D01*
X246157856Y-101435771D02*
X245919761Y-101435771D01*
X245919761Y-101435771D02*
X245824523Y-101483390D01*
X245824523Y-101483390D02*
X245776904Y-101531009D01*
X245776904Y-101531009D02*
X245729285Y-101626247D01*
X245729285Y-101626247D02*
X245729285Y-101864342D01*
X245729285Y-101864342D02*
X245776904Y-101959580D01*
X245776904Y-101959580D02*
X245824523Y-102007200D01*
X245824523Y-102007200D02*
X245919761Y-102054819D01*
X245919761Y-102054819D02*
X246157856Y-102054819D01*
X246157856Y-102054819D02*
X246253094Y-102007200D01*
X246253094Y-102007200D02*
X246300713Y-101959580D01*
X256264580Y-110837142D02*
X256312200Y-110789523D01*
X256312200Y-110789523D02*
X256359819Y-110646666D01*
X256359819Y-110646666D02*
X256359819Y-110551428D01*
X256359819Y-110551428D02*
X256312200Y-110408571D01*
X256312200Y-110408571D02*
X256216961Y-110313333D01*
X256216961Y-110313333D02*
X256121723Y-110265714D01*
X256121723Y-110265714D02*
X255931247Y-110218095D01*
X255931247Y-110218095D02*
X255788390Y-110218095D01*
X255788390Y-110218095D02*
X255597914Y-110265714D01*
X255597914Y-110265714D02*
X255502676Y-110313333D01*
X255502676Y-110313333D02*
X255407438Y-110408571D01*
X255407438Y-110408571D02*
X255359819Y-110551428D01*
X255359819Y-110551428D02*
X255359819Y-110646666D01*
X255359819Y-110646666D02*
X255407438Y-110789523D01*
X255407438Y-110789523D02*
X255455057Y-110837142D01*
X255455057Y-111218095D02*
X255407438Y-111265714D01*
X255407438Y-111265714D02*
X255359819Y-111360952D01*
X255359819Y-111360952D02*
X255359819Y-111599047D01*
X255359819Y-111599047D02*
X255407438Y-111694285D01*
X255407438Y-111694285D02*
X255455057Y-111741904D01*
X255455057Y-111741904D02*
X255550295Y-111789523D01*
X255550295Y-111789523D02*
X255645533Y-111789523D01*
X255645533Y-111789523D02*
X255788390Y-111741904D01*
X255788390Y-111741904D02*
X256359819Y-111170476D01*
X256359819Y-111170476D02*
X256359819Y-111789523D01*
X256359819Y-112741904D02*
X256359819Y-112170476D01*
X256359819Y-112456190D02*
X255359819Y-112456190D01*
X255359819Y-112456190D02*
X255502676Y-112360952D01*
X255502676Y-112360952D02*
X255597914Y-112265714D01*
X255597914Y-112265714D02*
X255645533Y-112170476D01*
X248253094Y-38019819D02*
X248253094Y-38829342D01*
X248253094Y-38829342D02*
X248205475Y-38924580D01*
X248205475Y-38924580D02*
X248157856Y-38972200D01*
X248157856Y-38972200D02*
X248062618Y-39019819D01*
X248062618Y-39019819D02*
X247872142Y-39019819D01*
X247872142Y-39019819D02*
X247776904Y-38972200D01*
X247776904Y-38972200D02*
X247729285Y-38924580D01*
X247729285Y-38924580D02*
X247681666Y-38829342D01*
X247681666Y-38829342D02*
X247681666Y-38019819D01*
X246681666Y-39019819D02*
X247253094Y-39019819D01*
X246967380Y-39019819D02*
X246967380Y-38019819D01*
X246967380Y-38019819D02*
X247062618Y-38162676D01*
X247062618Y-38162676D02*
X247157856Y-38257914D01*
X247157856Y-38257914D02*
X247253094Y-38305533D01*
X245824523Y-38019819D02*
X246014999Y-38019819D01*
X246014999Y-38019819D02*
X246110237Y-38067438D01*
X246110237Y-38067438D02*
X246157856Y-38115057D01*
X246157856Y-38115057D02*
X246253094Y-38257914D01*
X246253094Y-38257914D02*
X246300713Y-38448390D01*
X246300713Y-38448390D02*
X246300713Y-38829342D01*
X246300713Y-38829342D02*
X246253094Y-38924580D01*
X246253094Y-38924580D02*
X246205475Y-38972200D01*
X246205475Y-38972200D02*
X246110237Y-39019819D01*
X246110237Y-39019819D02*
X245919761Y-39019819D01*
X245919761Y-39019819D02*
X245824523Y-38972200D01*
X245824523Y-38972200D02*
X245776904Y-38924580D01*
X245776904Y-38924580D02*
X245729285Y-38829342D01*
X245729285Y-38829342D02*
X245729285Y-38591247D01*
X245729285Y-38591247D02*
X245776904Y-38496009D01*
X245776904Y-38496009D02*
X245824523Y-38448390D01*
X245824523Y-38448390D02*
X245919761Y-38400771D01*
X245919761Y-38400771D02*
X246110237Y-38400771D01*
X246110237Y-38400771D02*
X246205475Y-38448390D01*
X246205475Y-38448390D02*
X246253094Y-38496009D01*
X246253094Y-38496009D02*
X246300713Y-38591247D01*
D12*
%TO.C,C20*%
X251855000Y-108045000D02*
X251855000Y-103660000D01*
X254875000Y-103660000D02*
X254875000Y-108045000D01*
X254875000Y-108045000D02*
X251855000Y-108045000D01*
%TO.C,JP4*%
X80537537Y-44133198D02*
X80961802Y-44557463D01*
X81527487Y-42153299D02*
X80537537Y-43143249D01*
X81951751Y-44557463D02*
X82941701Y-43567513D01*
X82941701Y-42577564D02*
X82517436Y-42153299D01*
X80537537Y-44133198D02*
G75*
G02*
X80537537Y-43143250I494974J494974D01*
G01*
X81527487Y-42153299D02*
G75*
G02*
X82517436Y-42153298I494975J-494975D01*
G01*
X81951751Y-44557463D02*
G75*
G02*
X80961801Y-44557464I-494975J494957D01*
G01*
X82941701Y-42577564D02*
G75*
G02*
X82941701Y-43567513I-494975J-494974D01*
G01*
%TO.C,JP2*%
X237760000Y-43065000D02*
X237760000Y-47165000D01*
X237760000Y-47165000D02*
X239760000Y-47165000D01*
X239760000Y-43065000D02*
X237760000Y-43065000D01*
X239760000Y-47165000D02*
X239760000Y-43065000D01*
%TO.C,C17*%
X251855000Y-44990000D02*
X254875000Y-44990000D01*
X251855000Y-49375000D02*
X251855000Y-44990000D01*
X254875000Y-44990000D02*
X254875000Y-49375000D01*
%TO.C,JP3*%
X83887918Y-38242817D02*
X84312183Y-38667082D01*
X84877868Y-36262918D02*
X83887918Y-37252868D01*
X85302132Y-38667082D02*
X86292082Y-37677132D01*
X86292082Y-36687183D02*
X85867817Y-36262918D01*
X83887918Y-38242817D02*
G75*
G02*
X83887918Y-37252869I494974J494974D01*
G01*
X84877868Y-36262918D02*
G75*
G02*
X85867817Y-36262917I494975J-494975D01*
G01*
X85302132Y-38667082D02*
G75*
G02*
X84312182Y-38667083I-494975J494957D01*
G01*
X86292082Y-36687183D02*
G75*
G02*
X86292082Y-37677132I-494975J-494974D01*
G01*
%TO.C,JP1*%
X237760000Y-106535000D02*
X237760000Y-110635000D01*
X237760000Y-110635000D02*
X239760000Y-110635000D01*
X239760000Y-106535000D02*
X237760000Y-106535000D01*
X239760000Y-110635000D02*
X239760000Y-106535000D01*
%TO.C,C22*%
X251855000Y-44545000D02*
X251855000Y-40160000D01*
X254875000Y-40160000D02*
X254875000Y-44545000D01*
X254875000Y-44545000D02*
X251855000Y-44545000D01*
%TO.C,U15*%
X250145000Y-104005000D02*
X249905000Y-103675000D01*
X250385000Y-103675000D01*
X250145000Y-104005000D01*
G36*
X250145000Y-104005000D02*
G01*
X249905000Y-103675000D01*
X250385000Y-103675000D01*
X250145000Y-104005000D01*
G37*
%TO.C,C21*%
X251855000Y-108845000D02*
X254875000Y-108845000D01*
X251855000Y-113230000D02*
X251855000Y-108845000D01*
X254875000Y-108845000D02*
X254875000Y-113230000D01*
%TO.C,U16*%
X250145000Y-40505000D02*
X249905000Y-40175000D01*
X250385000Y-40175000D01*
X250145000Y-40505000D01*
G36*
X250145000Y-40505000D02*
G01*
X249905000Y-40175000D01*
X250385000Y-40175000D01*
X250145000Y-40505000D01*
G37*
%TD*%
M02*
